<?xml version="1.0" standalone="no"?>
<!DOCTYPE svg PUBLIC "-//W3C//DTD SVG 20010904//EN"
 "http://www.w3.org/TR/2001/REC-SVG-20010904/DTD/svg10.dtd">
<svg version="1.0" xmlns="http://www.w3.org/2000/svg"
 width="5212.000000pt" height="4000.000000pt" viewBox="0 0 5212.000000 4000.000000"
 preserveAspectRatio="xMidYMid meet">

<g transform="translate(0.000000,4000.000000) scale(0.100000,-0.100000)"
fill="#000000" stroke="none">
<path d="M0 20000 l0 -20000 26060 0 26060 0 0 20000 0 20000 -26060 0 -26060
0 0 -20000z m29890 13115 l0 -25 121 0 c70 0 118 -4 114 -9 -3 -5 2 -17 11
-25 12 -12 37 -16 104 -16 84 0 89 -1 92 -22 3 -21 9 -23 81 -26 74 -3 77 -4
77 -27 0 -23 4 -25 50 -25 46 0 50 -2 50 -24 0 -20 6 -24 40 -29 39 -5 70 -26
70 -46 0 -6 11 -11 25 -11 18 0 25 -5 25 -20 0 -14 9 -21 38 -26 20 -4 47 -18
59 -30 14 -15 33 -24 53 -24 20 0 30 -5 30 -15 0 -8 10 -19 22 -26 11 -6 31
-22 43 -35 12 -13 27 -24 34 -24 6 0 11 -6 11 -14 0 -8 10 -16 22 -18 15 -2
25 -12 28 -28 3 -14 11 -25 18 -26 29 -2 32 -5 32 -29 0 -20 5 -25 24 -25 18
0 25 -6 28 -22 2 -15 11 -24 25 -26 13 -2 23 -11 25 -25 2 -13 13 -23 28 -27
17 -4 25 -13 24 -27 0 -16 7 -23 28 -27 22 -4 28 -11 28 -31 0 -16 6 -25 15
-25 8 0 15 -9 15 -20 0 -11 5 -20 10 -20 6 0 10 -12 10 -26 0 -17 6 -28 20
-31 11 -3 17 -9 14 -14 -3 -5 0 -9 5 -9 6 0 11 -7 11 -15 0 -8 6 -15 14 -15 9
0 16 -12 18 -32 2 -23 10 -36 26 -43 13 -6 22 -18 22 -32 0 -18 6 -23 24 -23
17 0 26 -7 30 -25 4 -14 11 -25 16 -25 6 0 10 -5 10 -11 0 -6 7 -17 15 -25 8
-9 15 -29 15 -45 0 -24 4 -29 25 -29 23 0 25 -3 25 -50 0 -46 2 -50 24 -50 23
0 25 -4 28 -52 3 -46 6 -53 26 -56 19 -3 22 -9 22 -53 0 -46 2 -49 25 -49 22
0 25 -4 25 -39 0 -36 15 -64 39 -73 6 -1 13 -30 17 -63 5 -42 14 -66 31 -83
20 -20 23 -33 23 -98 0 -67 3 -77 25 -98 23 -21 25 -30 25 -110 0 -70 3 -86
15 -86 11 0 15 -11 15 -40 0 -22 5 -40 10 -40 6 0 10 -42 10 -105 0 -87 3
-105 15 -105 13 0 15 -58 15 -466 0 -400 -2 -468 -15 -480 -10 -11 -15 -36
-15 -80 0 -36 -4 -64 -10 -64 -5 0 -10 -11 -10 -25 0 -14 -7 -28 -15 -31 -12
-5 -15 -29 -15 -130 l0 -124 -25 0 c-25 0 -25 -1 -25 -84 0 -64 -4 -88 -16
-100 -8 -9 -20 -14 -25 -11 -5 4 -9 -11 -10 -32 -1 -54 -8 -87 -19 -91 -6 -2
-8 -8 -4 -13 3 -5 -1 -9 -10 -9 -8 0 -17 -13 -21 -30 -4 -20 -13 -30 -25 -30
-24 0 -30 -19 -30 -91 0 -56 -1 -59 -25 -59 -24 0 -25 -3 -25 -55 0 -52 2 -55
24 -55 18 0 25 -6 28 -22 l3 -23 321 -3 322 -2 6 -25 6 -25 140 0 c118 0 140
-2 140 -15 0 -8 7 -15 15 -15 8 0 15 -4 15 -10 0 -6 37 -10 90 -10 89 0 90 0
90 -25 0 -24 2 -25 70 -25 65 0 71 -2 81 -24 10 -20 20 -24 68 -28 41 -3 64
-10 80 -25 13 -12 38 -24 56 -27 19 -4 35 -11 37 -17 2 -6 25 -13 51 -16 26
-3 47 -9 47 -14 0 -21 35 -39 76 -39 28 0 43 -4 39 -10 -4 -6 5 -10 19 -10 16
0 26 -6 26 -15 0 -10 10 -15 33 -15 34 -1 67 -19 67 -39 0 -6 11 -11 25 -11
18 0 26 -7 31 -24 5 -20 14 -25 55 -31 43 -6 49 -10 49 -31 0 -19 5 -24 24
-24 18 0 25 -6 28 -22 2 -19 10 -24 45 -26 36 -3 44 -7 49 -28 5 -20 12 -24
44 -24 32 0 39 -4 44 -25 5 -18 13 -25 31 -25 20 0 25 -5 25 -25 0 -20 5 -25
24 -25 18 0 25 -6 28 -22 2 -19 12 -25 51 -32 37 -8 49 -14 53 -33 4 -14 14
-23 25 -23 12 0 21 -9 25 -25 4 -18 13 -25 30 -25 19 0 24 -5 24 -25 0 -20 5
-25 25 -25 14 0 25 -6 25 -13 0 -15 54 -67 69 -67 5 0 12 -11 15 -25 4 -16 13
-25 25 -25 12 0 21 -9 25 -25 4 -15 16 -27 31 -31 14 -3 23 -10 20 -14 -7 -11
23 -40 41 -40 8 0 14 -10 14 -25 0 -20 5 -25 25 -25 20 0 25 -5 25 -25 0 -20
5 -25 25 -25 20 0 25 -5 25 -24 0 -17 7 -26 25 -30 20 -5 25 -13 25 -37 0 -30
19 -59 38 -59 6 0 13 -14 17 -30 4 -17 10 -28 15 -25 11 7 40 -23 40 -41 0 -8
10 -14 25 -14 20 0 25 -5 25 -24 0 -17 7 -26 25 -30 21 -5 25 -12 25 -41 0
-29 4 -36 25 -41 16 -4 25 -13 25 -25 0 -11 7 -22 15 -25 8 -4 15 -15 15 -25
0 -10 5 -19 10 -19 6 0 10 -13 10 -30 0 -23 4 -30 20 -30 13 0 22 -9 26 -25 3
-14 11 -25 18 -25 10 0 20 -29 43 -120 3 -14 12 -29 19 -33 8 -4 14 -21 14
-38 0 -19 9 -38 25 -53 18 -17 25 -34 25 -60 0 -32 3 -36 25 -36 20 0 25 -5
25 -25 0 -16 6 -25 15 -25 8 0 15 -7 15 -16 0 -8 4 -13 10 -9 5 3 10 -22 12
-62 3 -62 5 -68 26 -71 20 -3 22 -9 22 -62 0 -70 6 -90 30 -90 19 0 30 -41 30
-117 0 -39 2 -43 25 -43 25 0 25 0 25 -95 0 -95 0 -95 25 -95 l25 0 0 -125 c0
-111 2 -125 19 -134 10 -6 21 -7 25 -4 3 4 5 -1982 4 -4413 l-3 -4419 -22 -10
c-22 -9 -23 -15 -23 -127 l0 -118 -25 0 c-24 0 -24 -1 -27 -102 -3 -98 -4
-103 -25 -106 -19 -3 -23 -10 -23 -40 0 -73 -11 -112 -31 -112 -11 0 -20 -7
-20 -15 -1 -8 -3 -19 -4 -25 -1 -5 -3 -35 -4 -65 -1 -52 -3 -55 -26 -55 -24 0
-25 -2 -25 -65 0 -40 -4 -65 -11 -65 -20 0 -39 -29 -39 -60 0 -20 -9 -39 -25
-54 -18 -17 -25 -34 -25 -60 0 -25 -4 -36 -15 -36 -9 0 -15 -9 -15 -25 0 -14
-4 -25 -9 -25 -5 0 -12 -22 -16 -50 -5 -35 -12 -51 -25 -55 -11 -3 -22 -14
-25 -25 -3 -10 -12 -21 -20 -24 -8 -3 -15 -17 -15 -31 0 -14 -4 -25 -10 -25
-5 0 -10 -7 -10 -15 0 -8 -4 -15 -9 -15 -5 0 -13 -10 -17 -22 -8 -26 -28 -48
-43 -48 -6 0 -11 -18 -11 -40 0 -36 -2 -40 -25 -40 -23 0 -25 -3 -25 -50 0
-47 -2 -50 -25 -50 -20 0 -25 -5 -25 -24 0 -17 -7 -26 -24 -30 -14 -3 -26 -16
-30 -30 -4 -15 -14 -26 -29 -28 -14 -2 -23 -11 -25 -25 -3 -17 -10 -23 -28
-23 -22 0 -24 -4 -24 -50 0 -47 -2 -50 -25 -50 -20 0 -25 -5 -25 -24 0 -17 -7
-26 -25 -30 -14 -4 -25 -13 -25 -21 0 -8 -4 -15 -9 -15 -11 0 -141 -130 -141
-141 0 -5 -4 -9 -9 -9 -17 0 -81 -67 -81 -84 0 -10 -9 -16 -25 -16 -20 0 -25
-5 -25 -25 0 -20 -5 -25 -25 -25 -20 0 -25 -5 -25 -25 0 -20 -6 -27 -30 -31
-23 -5 -30 -12 -30 -30 0 -22 -4 -24 -50 -24 -47 0 -50 -2 -50 -25 0 -20 -5
-25 -25 -25 -20 0 -25 -5 -25 -25 0 -21 -5 -25 -27 -25 -47 0 -73 -11 -73 -30
0 -12 -10 -21 -30 -25 -20 -4 -30 -13 -30 -25 0 -19 -19 -30 -52 -30 -21 0
-48 -22 -48 -39 0 -10 -21 -16 -42 -12 -5 0 -8 -6 -8 -14 0 -8 -7 -15 -15 -15
-8 0 -15 -4 -15 -10 0 -5 -11 -10 -25 -10 -16 0 -25 -6 -25 -15 0 -9 -9 -15
-23 -15 -28 0 -87 -28 -87 -41 0 -5 -8 -9 -17 -9 -29 0 -83 -23 -83 -36 0 -6
-20 -15 -46 -19 -35 -5 -47 -12 -54 -31 -9 -22 -15 -24 -70 -24 -33 0 -60 -4
-60 -9 0 -22 -34 -41 -71 -41 -35 0 -39 -3 -39 -25 0 -24 -2 -25 -74 -25 -70
0 -74 -1 -80 -25 -6 -24 -10 -25 -81 -25 -73 0 -75 -1 -75 -25 l0 -25 -107 0
c-125 0 -153 -6 -153 -30 0 -21 -68 -30 -231 -30 -104 0 -108 -1 -111 -22 l-3
-23 -6170 0 -6170 0 -3 21 c-3 21 -9 22 -179 26 -97 2 -178 8 -180 14 -13 37
-22 39 -158 42 -122 4 -135 6 -135 22 0 24 -19 30 -96 30 -62 0 -64 1 -64 25
0 24 -2 25 -75 25 -71 0 -75 1 -81 25 -6 23 -11 25 -64 25 -71 0 -90 7 -90 30
0 15 -9 20 -42 22 -28 2 -42 7 -41 16 2 6 -4 12 -12 12 -8 0 -15 5 -15 10 0 6
-13 10 -29 10 -16 0 -36 6 -43 13 -28 27 -63 47 -85 47 -13 0 -23 6 -23 13 0
7 -10 14 -22 14 -13 1 -24 7 -26 13 -2 5 -14 10 -27 10 -12 0 -25 7 -29 15 -3
8 -17 15 -31 15 -14 0 -25 5 -25 10 0 6 -9 10 -20 10 -11 0 -23 7 -26 15 -4 8
-17 15 -30 15 -13 0 -24 4 -24 9 0 5 -11 12 -25 15 -14 4 -23 11 -20 16 3 6
-6 10 -20 10 -14 0 -36 10 -48 24 -12 13 -32 26 -44 30 -13 4 -23 15 -23 26 0
11 -10 20 -24 24 -14 3 -28 15 -31 26 -3 11 -17 23 -31 26 -17 4 -24 13 -24
30 0 22 -4 24 -50 24 -47 0 -50 2 -50 25 0 20 -5 25 -25 25 -20 0 -25 5 -25
25 0 20 -5 25 -24 25 -17 0 -26 7 -30 24 -4 15 -14 26 -29 28 -16 2 -23 11
-25 31 -3 24 -8 27 -38 27 -35 0 -64 18 -64 39 0 6 -7 11 -15 11 -8 0 -15 7
-15 15 0 8 -4 15 -10 15 -5 0 -10 11 -10 25 0 16 -6 25 -15 25 -8 0 -15 5 -15
11 0 14 -25 39 -39 39 -6 0 -11 6 -11 14 0 18 -29 48 -40 41 -4 -3 -11 6 -14
19 -3 14 -15 28 -26 31 -11 3 -23 17 -26 30 -3 14 -15 25 -27 27 -19 3 -22 11
-25 51 -3 42 -5 47 -28 47 -19 0 -24 5 -24 25 0 20 -5 25 -24 25 -19 0 -25 6
-28 28 -2 19 -9 28 -25 30 -17 3 -23 10 -23 30 0 46 -11 72 -30 72 -21 0 -30
19 -30 61 0 18 -4 28 -10 24 -5 -3 -10 -1 -10 4 0 6 -6 11 -14 11 -9 0 -16 12
-18 28 -2 19 -9 28 -25 30 -19 3 -23 10 -23 43 0 21 -5 39 -11 39 -21 0 -39
29 -39 64 0 25 -4 36 -15 36 -8 0 -15 6 -15 13 0 8 -4 7 -11 -3 -8 -12 -10
-12 -8 5 4 54 -2 85 -16 85 -9 0 -15 9 -15 25 0 14 -4 25 -10 25 -5 0 -10 11
-10 24 0 50 -12 84 -32 89 -11 3 -17 10 -13 16 3 6 1 11 -4 11 -6 0 -11 15
-11 34 0 21 -6 36 -15 40 -11 4 -15 21 -15 60 0 48 -3 58 -25 72 -23 15 -25
23 -25 85 0 67 -1 69 -25 69 l-25 0 0 115 c0 70 -4 115 -10 115 -5 0 -10 7
-10 15 0 8 -7 15 -15 15 -12 0 -15 17 -15 90 0 73 -3 90 -15 90 -8 0 -15 5
-15 11 0 5 -4 7 -10 4 -7 -4 -11 58 -12 177 -1 101 -3 194 -4 208 -1 14 -2 35
-3 48 -1 15 -7 22 -21 22 -20 0 -20 7 -20 4095 0 3986 0 4095 19 4095 23 0 31
55 31 233 0 118 1 127 19 127 25 0 31 26 31 153 l0 107 25 0 c25 0 25 1 25 85
0 79 2 88 25 109 23 21 25 30 25 110 0 85 0 86 25 86 23 0 25 3 25 50 0 38 4
50 15 50 10 0 15 10 15 30 0 17 5 30 12 30 6 0 9 3 5 6 -7 8 13 66 30 82 7 7
13 23 13 35 0 12 11 35 25 51 17 20 25 41 25 67 0 31 4 38 23 41 19 3 22 10
25 50 3 41 7 49 28 54 21 5 24 12 24 55 0 46 2 49 25 49 20 0 25 5 25 25 0 20
5 25 24 25 21 0 24 6 31 55 6 50 9 55 31 55 21 0 24 4 24 39 0 31 4 40 21 44
11 3 23 15 26 26 3 12 12 21 19 21 8 0 14 5 14 11 0 5 5 7 10 4 6 -4 10 5 10
21 0 15 3 25 6 22 12 -12 44 33 44 61 0 22 6 30 25 35 15 4 25 13 25 25 0 10
11 27 25 37 14 10 25 24 25 31 0 7 9 13 20 13 18 0 25 16 21 43 0 4 10 7 24 7
20 0 25 5 25 25 0 20 5 25 25 25 21 0 25 5 25 30 0 17 5 30 10 30 6 0 10 9 10
20 0 11 7 20 15 20 8 0 27 14 42 30 14 17 36 30 49 30 15 0 24 8 28 24 4 15
14 26 29 28 14 2 23 11 25 26 3 16 10 22 28 22 17 0 24 5 24 20 0 13 9 22 25
26 16 4 25 13 25 25 0 10 3 18 8 17 14 -3 42 14 42 27 0 7 11 16 25 19 14 4
25 10 25 15 0 17 31 41 51 41 22 0 49 22 49 39 0 6 7 11 16 11 18 0 44 23 44
39 0 6 11 11 25 11 20 0 25 5 25 25 0 23 4 25 40 25 36 0 40 3 40 25 0 21 5
25 30 26 17 1 35 3 40 4 6 1 17 3 25 4 8 0 14 4 14 9 -5 29 3 42 26 42 20 0
25 5 25 25 0 23 3 25 49 25 44 0 50 3 53 23 2 18 10 22 48 25 33 2 51 10 66
28 12 14 32 24 47 24 14 0 32 7 41 15 8 8 22 15 30 15 9 0 16 5 16 10 0 6 9
10 19 10 11 0 26 7 35 15 8 8 31 15 50 15 20 0 36 5 36 10 0 6 11 10 25 10 14
0 28 6 31 14 4 9 27 17 62 21 80 9 92 14 92 36 0 17 8 19 90 19 53 0 90 4 90
10 0 6 7 10 15 10 8 0 15 7 15 15 0 12 17 15 90 15 89 0 90 0 90 25 l0 25 130
0 130 0 0 25 0 25 325 0 c345 0 333 -2 326 43 0 4 10 7 24 7 25 0 25 1 25 80
0 79 0 80 -25 80 -24 0 -25 2 -25 63 0 55 -3 65 -25 81 -18 14 -25 28 -25 53
0 34 -18 63 -39 63 -7 0 -11 25 -11 65 0 63 -1 65 -25 65 l-25 0 0 139 c0 152
-3 171 -30 171 -15 0 -18 14 -25 101 -6 86 -10 102 -25 106 -27 7 -33 145 -28
645 3 412 3 417 25 435 19 17 22 33 29 136 6 102 9 117 24 117 24 0 30 28 30
153 0 107 0 107 25 107 23 0 24 3 27 73 3 64 6 73 26 82 19 9 22 17 22 72 0
61 1 63 25 63 23 0 25 3 25 49 0 43 3 50 24 55 21 5 25 13 28 54 3 39 6 47 25
50 17 3 23 12 28 53 5 32 12 49 21 49 12 0 19 19 15 43 0 4 3 7 9 7 5 0 10 11
10 24 0 13 7 26 15 30 8 3 15 13 15 21 0 9 5 13 10 10 6 -3 10 3 10 15 0 36
54 105 72 94 5 -3 8 13 8 35 0 23 5 41 11 41 5 0 7 5 4 10 -3 6 3 10 14 10 16
0 21 6 21 25 0 20 5 25 24 25 21 0 25 6 31 50 6 42 11 51 31 56 17 4 24 13 24
30 0 19 5 24 25 24 20 0 25 5 25 25 0 20 5 25 25 25 20 0 25 5 25 25 0 20 5
25 25 25 20 0 25 5 25 25 0 20 5 25 24 25 17 0 26 7 30 25 4 15 16 27 31 31
18 4 25 13 25 30 0 19 5 24 25 24 14 0 25 5 25 11 0 14 25 39 39 39 6 0 11 7
11 15 0 9 9 15 24 15 37 0 56 10 56 31 0 13 7 19 24 19 17 0 26 7 30 25 4 17
13 25 29 25 39 0 66 12 72 30 3 11 16 20 28 22 14 2 23 11 25 25 3 17 12 23
53 28 43 6 49 10 49 31 0 23 2 24 80 24 79 0 80 0 80 25 0 24 2 25 64 25 59 0
65 2 68 23 2 17 10 23 38 25 60 4 78 11 85 31 5 18 18 20 169 23 134 2 165 6
179 19 9 9 13 19 10 23 -4 3 1668 6 3715 6 l3722 0 0 -25z m-10580 -22606 c0
-5 7 -9 15 -9 13 0 15 -138 15 -1185 0 -652 4 -1185 8 -1185 21 0 34 -77 39
-240 3 -98 10 -178 16 -181 5 -4 12 -50 15 -103 2 -53 9 -96 13 -96 5 0 9 -13
9 -30 0 -20 5 -30 15 -30 10 0 15 -11 15 -35 0 -19 5 -35 10 -35 6 0 10 -7 10
-15 0 -8 7 -15 15 -15 8 0 15 -5 15 -11 0 -14 25 -39 39 -39 6 0 11 -7 11 -15
0 -9 9 -15 25 -15 14 0 25 -4 25 -10 0 -5 11 -10 25 -10 14 0 25 -6 25 -13 0
-8 26 -18 74 -26 41 -6 86 -14 101 -17 15 -3 40 -19 56 -37 27 -29 29 -37 29
-114 0 -49 -4 -83 -10 -83 -5 0 -10 -11 -10 -24 0 -13 -7 -26 -15 -30 -12 -4
-15 -25 -15 -96 0 -82 -2 -90 -19 -90 -25 0 -31 -19 -31 -90 0 -53 -2 -59 -22
-62 -19 -2 -24 -10 -26 -48 -2 -24 -9 -48 -15 -52 -19 -12 -327 -10 -327 3 0
25 -30 39 -88 39 -51 0 -62 3 -78 25 -11 15 -29 25 -44 25 -63 0 -99 12 -102
34 -2 17 -11 22 -50 24 -41 3 -49 7 -54 28 -4 17 -13 24 -30 24 -18 0 -24 6
-24 21 0 11 -4 17 -10 14 -5 -3 -10 -1 -10 4 0 6 -7 11 -15 11 -8 0 -15 5 -15
11 0 14 -55 69 -69 69 -6 0 -11 7 -11 15 0 8 -4 15 -10 15 -5 0 -10 16 -10 35
0 29 -5 37 -25 45 -14 5 -25 17 -25 25 0 9 -6 18 -14 21 -7 3 -16 23 -20 45
-3 21 -11 39 -17 39 -5 0 -7 5 -4 10 3 6 0 10 -8 10 -16 0 -27 49 -27 127 0
52 -14 96 -37 121 -11 11 -13 333 -11 1605 l3 1592 30 6 c48 11 645 9 645 -2z
m1170 -1300 c0 -7 45 -10 143 -9 244 4 246 4 253 -25 4 -15 13 -25 24 -25 21
0 30 -27 30 -92 0 -44 2 -48 25 -48 23 0 25 -3 25 -50 0 -47 2 -50 25 -50 24
0 25 -2 25 -75 0 -73 1 -75 25 -75 21 0 25 -5 25 -30 0 -20 5 -30 15 -30 8 0
15 -5 15 -11 0 -5 5 -7 10 -4 6 4 10 -12 10 -42 0 -67 9 -93 31 -93 14 0 19
-8 21 -27 2 -52 4 -58 15 -56 6 1 14 -9 17 -22 4 -14 11 -25 16 -25 6 0 10
-25 10 -55 0 -42 3 -55 15 -55 8 0 15 -9 15 -20 0 -11 5 -20 10 -20 6 0 10
-13 10 -30 0 -20 5 -30 15 -30 10 0 15 -10 15 -31 0 -17 4 -28 10 -24 6 4 10
-5 10 -20 0 -14 7 -28 15 -31 9 -4 15 -19 15 -40 0 -19 5 -34 10 -34 6 0 10
-7 10 -15 0 -8 7 -15 15 -15 11 0 15 -11 15 -42 0 -62 9 -88 31 -88 13 0 19
-7 19 -21 0 -12 14 -35 30 -51 17 -16 30 -39 30 -52 0 -22 16 -36 41 -36 5 0
9 7 9 15 0 9 9 15 25 15 22 0 25 4 25 34 0 28 4 35 25 40 21 5 25 12 25 40 0
47 9 66 31 66 15 0 19 7 19 40 0 29 4 40 15 40 8 0 15 7 15 15 0 8 4 15 9 15
5 0 12 29 16 65 5 54 10 65 25 65 21 0 30 19 30 66 0 24 5 34 15 34 9 0 15 9
15 25 0 14 5 25 10 25 6 0 10 11 10 24 0 13 7 26 15 30 9 3 15 18 15 36 0 16
5 30 10 30 6 0 10 9 10 20 0 11 7 20 15 20 11 0 15 12 15 50 0 28 5 50 10 50
6 0 10 7 10 15 0 8 7 15 15 15 11 0 15 12 15 49 0 43 3 50 24 55 21 5 24 13
31 81 6 71 8 75 31 75 22 0 24 4 24 49 0 44 3 50 23 53 19 3 22 10 25 56 3 48
5 52 28 52 23 0 24 3 24 65 l0 65 68 0 c40 0 73 5 80 12 9 9 12 9 12 0 0 -15
651 -13 662 2 5 7 8 7 8 -1 0 -8 13 -13 29 -13 26 0 29 -4 33 -36 3 -29 1 -38
-14 -42 -14 -3 -18 -14 -18 -53 0 -46 -2 -49 -25 -49 -26 0 -25 2 -29 -85 -1
-12 -9 -21 -23 -23 -17 -3 -23 -12 -28 -52 -5 -40 -11 -49 -28 -52 -20 -3 -22
-10 -25 -70 -3 -60 -5 -67 -25 -70 -19 -3 -22 -10 -25 -50 -3 -43 -5 -48 -28
-48 -22 0 -24 -4 -24 -50 0 -47 -2 -50 -25 -50 -23 0 -25 -3 -25 -49 0 -44 -3
-49 -25 -55 -18 -5 -25 -14 -26 -31 -1 -14 -3 -29 -4 -35 -1 -5 -3 -17 -4 -25
0 -8 -10 -15 -20 -15 -15 0 -20 -10 -26 -49 -6 -41 -11 -50 -31 -55 -21 -6
-24 -12 -24 -50 0 -30 -5 -46 -15 -50 -8 -3 -15 -17 -15 -31 0 -14 -4 -25 -10
-25 -5 0 -10 -11 -10 -25 0 -16 -6 -25 -15 -25 -11 0 -15 -11 -15 -40 0 -36
-2 -40 -25 -40 -23 0 -25 -3 -25 -49 0 -43 -3 -50 -24 -55 -20 -5 -25 -14 -31
-56 -5 -39 -11 -50 -25 -50 -14 0 -20 -11 -25 -49 -5 -41 -11 -50 -28 -53 -19
-3 -22 -10 -25 -55 -3 -49 -5 -53 -28 -53 -23 0 -24 -3 -24 -65 0 -63 -1 -65
-25 -65 -23 0 -25 -3 -25 -50 0 -46 -2 -50 -24 -50 -23 0 -25 -4 -28 -52 -3
-46 -6 -53 -25 -56 -19 -3 -23 -10 -23 -43 0 -21 1 -42 2 -46 1 -5 -11 -10
-27 -13 -21 -4 -30 -11 -31 -25 -3 -69 -4 -73 -29 -79 -22 -6 -25 -11 -25 -56
0 -47 -2 -50 -25 -50 -23 0 -25 -4 -25 -45 0 -31 -5 -47 -15 -51 -8 -4 -15
-16 -15 -29 0 -12 -11 -34 -25 -49 -15 -16 -25 -39 -25 -57 0 -16 -5 -29 -11
-29 -5 0 -8 -4 -4 -9 3 -5 -3 -12 -14 -16 -11 -3 -21 -16 -23 -28 -3 -22 -4
-22 -238 -25 -129 -1 -245 0 -257 3 -14 3 -23 13 -23 24 0 12 -9 21 -25 25
-16 4 -25 13 -25 27 0 11 -7 22 -15 25 -9 4 -15 19 -15 36 0 18 -9 37 -24 51
-19 18 -26 38 -32 84 -5 53 -10 62 -28 65 -17 2 -22 11 -24 50 -3 41 -7 49
-28 54 -17 4 -24 13 -24 30 0 19 -5 24 -25 24 -23 0 -25 3 -25 50 0 46 -2 50
-25 50 -23 0 -24 3 -27 73 -3 64 -6 73 -25 82 -15 6 -23 18 -23 35 0 45 -12
70 -31 70 -11 0 -19 6 -20 13 -2 39 -12 62 -34 81 -18 16 -25 32 -25 59 0 20
-5 37 -11 37 -21 0 -39 29 -39 64 0 32 -3 36 -25 36 -24 0 -25 2 -25 64 0 62
-14 96 -41 96 -5 0 -9 9 -9 20 0 11 -7 23 -15 26 -8 4 -15 18 -15 33 0 14 -11
38 -24 52 -12 13 -26 42 -30 62 -4 22 -13 37 -21 37 -22 0 -35 34 -35 94 0 51
-2 56 -25 62 -22 6 -25 11 -25 55 0 46 -2 49 -25 49 -20 0 -25 5 -25 24 0 18
-6 25 -22 28 -21 3 -23 10 -28 78 -5 68 -7 75 -27 78 -19 3 -23 10 -23 36 0
23 -7 39 -24 51 -15 11 -26 33 -30 57 -3 21 -10 38 -15 38 -22 0 -41 34 -41
71 0 32 -4 39 -19 39 -22 0 -31 19 -31 66 0 30 -3 34 -25 34 -23 0 -25 3 -25
49 0 41 -3 50 -21 54 -12 3 -18 10 -14 16 3 6 1 11 -4 11 -6 0 -11 13 -11 29
0 16 -7 36 -15 45 -8 8 -15 24 -15 35 0 12 -4 21 -10 21 -5 0 -10 7 -10 15 0
8 6 15 13 15 8 0 7 4 -3 10 -10 6 -11 10 -2 10 6 0 12 7 12 15 0 12 15 15 73
15 128 1 278 8 284 14 11 11 83 6 83 -5z m9425 -9 c109 0 134 -3 139 -15 3
-10 19 -15 46 -15 25 0 39 -4 35 -10 -4 -6 15 -10 49 -10 43 0 56 -3 56 -15 0
-11 11 -15 36 -15 34 0 64 -18 64 -38 0 -5 23 -12 51 -16 38 -5 52 -12 56 -26
3 -10 16 -21 29 -24 17 -5 24 -13 24 -31 0 -23 3 -25 50 -25 47 0 50 -2 50
-25 0 -20 5 -25 25 -25 23 0 31 -13 26 -42 0 -5 10 -8 23 -8 22 0 25 -5 31
-52 3 -29 5 -163 3 -298 l-3 -245 -195 0 c-195 0 -195 0 -198 23 -3 21 -7 22
-103 22 -99 0 -99 0 -99 25 0 20 -5 25 -24 25 -17 0 -26 7 -30 25 -4 15 -16
27 -31 31 -15 4 -25 13 -25 24 0 10 -7 21 -16 24 -9 3 -119 6 -245 6 l-229 0
0 -25 c0 -20 -5 -25 -24 -25 -13 0 -31 -11 -42 -25 -12 -16 -33 -28 -56 -32
-32 -5 -38 -10 -38 -29 0 -19 -5 -24 -25 -24 -20 0 -25 -5 -25 -25 0 -20 -5
-25 -25 -25 -23 0 -25 -3 -25 -50 0 -47 -2 -50 -25 -50 -22 0 -25 -4 -25 -39
0 -36 -19 -71 -39 -71 -13 0 -21 -230 -14 -390 6 -141 7 -149 27 -152 18 -3
21 -11 24 -55 3 -49 5 -53 28 -53 19 0 24 -5 24 -25 0 -20 5 -25 25 -25 20 0
25 -5 25 -25 0 -18 5 -25 20 -25 12 0 25 -10 32 -25 6 -13 19 -27 29 -30 9 -3
20 -12 23 -20 3 -8 17 -15 31 -15 14 0 25 -4 25 -10 0 -5 5 -10 11 -10 6 0 17
-7 25 -15 9 -8 33 -15 55 -15 32 0 39 -4 39 -19 0 -10 7 -22 16 -25 9 -3 89
-6 179 -6 l163 0 6 25 c5 19 13 25 35 25 59 0 121 13 121 25 0 13 50 35 80 35
10 0 20 10 23 22 4 12 9 19 13 16 3 -4 28 15 54 43 50 52 60 58 60 34 0 -10
10 -15 31 -15 16 0 28 -4 24 -9 -3 -6 17 -11 47 -13 46 -3 53 -6 56 -25 3 -17
10 -23 28 -23 15 0 24 -6 24 -15 0 -9 11 -20 25 -25 14 -5 25 -16 25 -25 0 -9
13 -17 38 -21 24 -4 46 -15 57 -30 10 -13 22 -24 27 -24 13 0 38 -26 38 -39 0
-6 7 -11 15 -11 8 0 15 -7 15 -15 0 -8 5 -15 10 -15 6 0 10 -16 10 -35 0 -31
-3 -35 -25 -35 -18 0 -25 -5 -25 -19 0 -31 -33 -81 -57 -87 -13 -4 -23 -13
-23 -21 0 -8 -4 -12 -9 -9 -5 3 -12 -5 -15 -18 -3 -14 -15 -27 -26 -31 -10 -3
-22 -15 -25 -25 -4 -11 -17 -23 -31 -26 -13 -3 -24 -10 -24 -15 0 -5 -11 -9
-25 -9 -16 0 -25 -6 -25 -15 0 -9 -9 -15 -23 -15 -31 0 -77 -22 -77 -37 0 -7
-12 -13 -26 -13 -26 0 -84 -28 -84 -41 0 -3 -28 -10 -62 -13 -45 -6 -67 -13
-81 -29 -22 -26 -15 -24 -116 -26 -74 -1 -80 -2 -83 -23 l-3 -23 -266 -3 -267
-2 -6 25 c-6 24 -10 25 -81 25 -73 0 -75 1 -75 24 0 23 -4 25 -75 31 -41 4
-75 11 -75 15 0 17 -32 40 -56 40 -26 0 -54 20 -54 39 0 6 -7 11 -15 11 -8 0
-15 4 -15 10 0 5 -11 12 -25 16 -14 3 -25 10 -25 15 0 5 -3 8 -7 8 -25 -4 -43
3 -43 16 0 9 -9 15 -25 15 -14 0 -24 3 -24 8 5 29 -3 42 -25 42 -17 0 -26 7
-30 24 -3 14 -16 26 -31 30 -18 5 -25 13 -25 31 0 20 -5 25 -25 25 -20 0 -25
5 -25 25 0 20 -5 25 -25 25 -20 0 -25 5 -25 25 0 20 -5 25 -25 25 -22 0 -25 4
-25 39 0 37 -19 71 -40 71 -5 0 -12 23 -16 50 -6 44 -9 50 -30 50 -22 0 -24 4
-24 49 0 44 -3 49 -25 55 -23 6 -25 10 -25 71 0 51 -3 65 -15 65 -11 0 -15 11
-15 38 0 27 -3 33 -10 22 -6 -10 -10 87 -10 283 0 191 4 297 10 297 6 0 10 11
10 25 0 14 7 28 15 31 11 5 15 24 15 80 0 72 1 74 25 74 22 0 25 4 25 39 0 36
19 71 39 71 5 0 11 16 14 35 6 36 27 65 46 65 6 0 11 18 11 40 0 36 3 40 25
40 20 0 25 5 25 25 0 20 5 25 25 25 21 0 25 5 25 30 0 25 4 30 25 30 23 0 25
4 25 44 0 41 2 45 30 51 23 5 30 12 30 31 0 19 5 24 25 24 20 0 25 5 25 25 0
23 4 25 43 26 23 1 45 1 50 0 4 0 7 10 7 23 0 17 7 26 25 30 16 4 25 13 25 26
0 16 7 20 33 21 17 1 35 1 40 0 4 0 7 3 7 9 0 25 36 50 72 50 24 0 38 5 38 13
0 15 46 37 77 37 14 0 23 6 23 15 0 11 12 15 50 15 28 0 50 5 50 10 0 6 23 10
50 10 36 0 52 4 56 15 5 12 26 15 98 16 50 1 120 4 156 8 36 3 67 3 68 -1 2
-5 64 -8 137 -8z m-15592 -16 c5 -9 26 -14 52 -14 25 0 45 -4 45 -10 0 -5 22
-10 49 -10 34 0 51 -4 55 -15 3 -8 17 -15 31 -15 14 0 25 -6 25 -12 0 -9 4 -8
10 2 6 10 10 11 10 3 0 -7 7 -13 15 -13 8 0 15 -7 15 -15 0 -10 10 -15 33 -15
33 -1 67 -19 67 -37 0 -6 17 -13 38 -16 23 -4 44 -16 56 -32 14 -18 28 -25 52
-25 19 0 35 -4 35 -10 1 -5 2 -16 3 -22 0 -7 13 -14 29 -16 21 -3 27 -9 27
-28 0 -19 5 -24 25 -24 20 0 25 -5 25 -25 0 -20 5 -25 24 -25 17 0 26 -7 30
-24 3 -14 15 -28 26 -31 42 -13 25 -155 -19 -155 -6 0 -11 -7 -11 -15 0 -10
-11 -15 -35 -15 -19 0 -35 -4 -35 -10 0 -5 -7 -10 -15 -10 -8 0 -15 -7 -15
-15 0 -8 -5 -15 -11 -15 -14 0 -39 -25 -39 -39 0 -6 -18 -11 -39 -11 -33 0
-40 -4 -43 -22 -2 -14 -12 -24 -28 -28 -16 -4 -26 -14 -28 -28 -3 -19 -9 -22
-53 -22 -42 0 -49 3 -49 20 0 11 -7 21 -15 21 -8 1 -19 3 -25 4 -5 1 -21 3
-34 4 -17 1 -26 8 -28 24 -3 19 -10 22 -50 25 -39 3 -47 7 -52 28 -6 23 -9 24
-96 24 -73 0 -90 3 -90 15 0 12 -18 15 -105 15 -87 0 -105 -3 -105 -15 0 -12
-15 -15 -75 -15 -73 0 -75 -1 -75 -25 0 -20 -5 -25 -24 -25 -16 0 -27 -7 -31
-21 -4 -12 -16 -30 -26 -40 -24 -24 -24 -36 1 -44 13 -4 20 -15 20 -31 0 -19
5 -24 25 -24 20 0 25 -5 25 -25 0 -21 5 -25 30 -25 25 0 30 -4 30 -25 0 -23 3
-25 50 -25 47 0 50 -2 50 -25 0 -22 4 -25 39 -25 36 0 71 -19 71 -39 0 -5 27
-11 61 -14 46 -4 65 -11 80 -28 14 -17 33 -24 76 -27 43 -4 62 -11 78 -28 16
-17 33 -24 59 -24 25 0 36 -4 36 -15 0 -9 9 -15 25 -15 14 0 25 -4 25 -10 0
-5 23 -10 50 -10 38 0 50 -4 50 -15 0 -8 9 -15 19 -15 22 0 81 -31 81 -42 0
-5 12 -8 26 -8 15 0 36 -10 49 -24 12 -13 32 -27 43 -31 12 -3 22 -15 22 -25
0 -11 10 -20 25 -24 16 -4 25 -13 25 -25 0 -12 9 -21 24 -25 14 -3 26 -16 30
-31 5 -18 13 -25 31 -25 20 0 25 -5 25 -25 0 -20 5 -25 25 -25 24 0 25 -2 25
-75 0 -71 1 -75 25 -81 l26 -6 -3 -142 c-3 -138 -4 -141 -25 -144 -20 -3 -23
-9 -23 -53 0 -46 -2 -49 -25 -49 -23 0 -25 -3 -25 -49 0 -43 -3 -50 -24 -55
-20 -5 -26 -14 -32 -51 -5 -36 -11 -46 -30 -51 -17 -4 -24 -13 -24 -30 0 -19
-5 -24 -25 -24 -20 0 -25 -5 -25 -25 0 -20 -5 -25 -25 -25 -16 0 -25 -6 -25
-15 0 -8 -7 -15 -15 -15 -8 0 -15 -5 -15 -11 0 -18 -27 -39 -51 -39 -12 0 -32
-11 -45 -25 -13 -14 -32 -25 -44 -25 -11 0 -20 -4 -20 -9 0 -5 -9 -7 -21 -4
-15 4 -22 0 -26 -15 -4 -16 -16 -22 -53 -27 -40 -5 -49 -11 -52 -28 -3 -20
-10 -22 -80 -25 -75 -3 -78 -4 -78 -27 l0 -25 -309 0 -308 0 -19 25 c-16 22
-26 25 -81 25 -44 0 -63 4 -63 13 0 21 -37 37 -100 44 -48 5 -60 9 -60 23 0
19 -27 30 -71 30 -20 0 -28 6 -33 25 -6 22 -12 25 -50 25 -38 0 -45 3 -50 25
-4 16 -13 25 -26 25 -11 0 -20 7 -20 15 0 8 -7 15 -15 15 -8 0 -15 5 -15 10 0
6 -7 10 -15 10 -8 0 -15 7 -15 15 0 8 -9 15 -20 15 -23 0 -60 29 -60 47 0 7
-4 13 -10 13 -5 0 -10 9 -10 20 0 11 -7 23 -15 26 -8 4 -15 15 -15 25 0 12 -9
21 -25 25 -24 6 -25 10 -25 80 l0 74 40 0 c23 0 40 5 40 11 0 15 39 49 55 49
7 0 16 7 19 16 3 8 10 12 16 9 5 -3 10 -2 10 4 0 6 11 13 24 17 14 3 27 12 30
20 3 8 14 14 24 14 10 0 24 11 30 24 8 19 20 25 49 28 28 2 41 9 48 26 8 18
18 22 56 22 42 0 48 -3 53 -25 4 -16 13 -25 26 -25 11 0 20 -7 20 -15 0 -8 7
-15 15 -15 8 0 15 -4 15 -9 0 -5 11 -11 25 -13 14 -2 25 -7 25 -12 -1 -5 23
-18 52 -29 29 -11 56 -24 59 -30 4 -5 27 -12 53 -14 35 -4 46 -10 46 -23 0
-10 10 -20 23 -24 29 -8 361 -8 381 0 9 3 16 14 16 24 0 13 10 19 44 22 42 5
86 35 86 58 0 6 11 21 25 34 18 17 25 34 25 60 0 20 -5 36 -11 36 -14 0 -39
25 -39 39 0 6 -6 11 -14 11 -8 0 -16 10 -18 22 -2 19 -12 25 -50 32 -36 6 -48
13 -48 26 0 19 -26 30 -72 30 -20 0 -27 6 -30 23 -3 19 -10 22 -55 25 -49 3
-53 5 -53 28 0 23 -2 24 -75 24 -73 0 -75 1 -75 25 0 23 -3 24 -67 27 -62 3
-68 5 -71 26 -3 18 -10 22 -42 22 -29 0 -46 7 -65 26 -14 14 -41 28 -60 31
-22 3 -37 12 -40 24 -4 11 -17 22 -31 25 -13 3 -24 11 -24 16 0 20 -30 38 -63
38 -29 0 -36 4 -41 25 -6 22 -12 25 -50 25 -38 0 -45 3 -50 25 -4 14 -13 25
-21 25 -9 0 -20 11 -26 24 -6 13 -22 29 -35 35 -19 8 -24 18 -24 46 0 19 -5
35 -11 35 -21 0 -39 29 -39 64 0 25 -4 36 -15 36 -9 0 -15 9 -15 25 0 14 -4
25 -10 25 -6 0 -10 31 -10 74 0 41 5 78 10 81 6 3 10 17 10 31 0 15 6 24 15
24 12 0 15 14 15 65 0 63 1 65 25 65 23 0 25 3 25 49 0 43 3 50 22 53 18 2 24
13 33 53 8 41 14 51 33 53 12 2 22 9 21 15 -3 29 3 37 26 37 20 0 25 5 25 25
0 20 5 25 25 25 20 0 25 5 25 25 0 20 5 25 25 25 20 0 25 5 25 24 0 17 7 26
24 30 14 3 27 15 31 25 6 20 33 31 78 31 22 0 27 4 27 25 0 23 3 25 50 25 38
0 50 4 50 15 0 9 9 15 25 15 14 0 25 5 25 10 0 6 18 10 40 10 28 0 40 4 40 15
0 17 117 23 345 16 112 -3 152 -7 158 -17z m10635 17 c101 -1 122 -4 122 -16
0 -11 11 -15 39 -15 22 0 43 -4 46 -10 3 -5 22 -10 41 -10 24 0 34 -5 34 -15
0 -11 12 -15 50 -15 28 0 50 -4 50 -10 0 -5 11 -10 25 -10 16 0 25 -6 25 -15
0 -9 9 -15 25 -15 20 0 25 -5 25 -24 0 -21 6 -25 50 -31 28 -4 47 -11 44 -16
-3 -5 0 -9 5 -9 6 0 11 -7 11 -15 0 -9 9 -15 25 -15 20 0 25 -5 25 -25 0 -20
5 -25 25 -25 20 0 25 -5 25 -25 0 -20 5 -25 25 -25 20 0 25 -5 25 -25 0 -14 6
-25 13 -25 15 0 70 -57 80 -83 4 -11 16 -21 27 -24 15 -4 20 -14 20 -39 0 -19
5 -34 10 -34 6 0 10 -7 10 -15 0 -8 7 -15 15 -15 11 0 15 -11 15 -40 0 -36 3
-40 25 -40 24 0 25 -3 25 -55 0 -30 3 -54 8 -54 40 7 42 2 42 -101 0 -98 0
-100 23 -100 23 0 24 -4 30 -97 9 -124 9 -416 1 -465 l-7 -38 -917 0 -918 0
-6 -22 c-8 -30 -8 -102 0 -122 3 -9 14 -16 24 -16 11 0 20 -10 24 -25 4 -14
13 -25 21 -25 8 0 19 -9 25 -20 14 -27 118 -130 130 -130 5 0 10 -7 10 -15 0
-8 14 -17 35 -21 19 -3 38 -10 41 -15 3 -5 10 -7 15 -4 5 4 9 0 9 -8 0 -10 16
-17 50 -22 28 -4 50 -11 50 -15 0 -5 7 -16 16 -24 23 -24 375 -24 398 0 9 8
14 19 11 24 -3 4 20 11 50 15 39 4 55 11 55 21 0 8 4 13 9 10 5 -4 11 -2 13 4
1 5 13 11 24 13 12 1 29 11 38 20 10 9 24 17 32 17 8 0 14 9 14 21 0 11 5 17
10 14 6 -3 10 -1 10 4 0 6 7 11 15 11 9 0 15 9 15 25 l0 25 105 0 c87 0 105
-3 105 -15 0 -11 12 -15 44 -15 25 0 48 -4 51 -10 3 -5 35 -10 71 -10 48 0 66
-4 70 -15 5 -11 23 -15 74 -15 38 0 72 -4 75 -10 3 -5 17 -10 31 -10 24 0 24
-1 24 -95 0 -95 0 -95 -25 -95 -20 0 -25 -5 -25 -25 0 -20 -5 -25 -25 -25 -20
0 -25 -5 -25 -24 0 -17 -7 -26 -25 -30 -21 -5 -25 -12 -25 -40 0 -36 -21 -66
-46 -66 -8 0 -14 -9 -14 -20 0 -13 -9 -22 -25 -26 -14 -3 -25 -11 -25 -16 0
-13 -26 -38 -39 -38 -6 0 -11 -7 -11 -15 0 -8 -7 -15 -15 -15 -8 0 -15 -4 -15
-10 0 -5 -11 -10 -25 -10 -16 0 -25 -6 -25 -15 0 -9 -9 -15 -25 -15 -20 0 -25
-5 -25 -25 0 -23 -3 -25 -50 -25 -33 0 -50 -4 -50 -12 0 -27 -17 -37 -75 -43
-45 -6 -65 -13 -80 -31 -19 -22 -28 -24 -108 -24 -56 0 -86 -4 -82 -10 3 -5
-1 -10 -9 -10 -9 0 -16 -7 -16 -15 0 -13 -38 -15 -282 -15 l-282 0 -21 24
c-19 22 -30 25 -106 27 -76 2 -85 4 -89 23 -5 16 -17 23 -58 30 -33 6 -52 14
-52 22 0 8 -11 14 -25 14 -14 0 -25 5 -25 10 0 6 -22 10 -49 10 -44 0 -49 3
-55 25 -4 16 -13 25 -26 25 -11 0 -20 7 -20 15 0 9 -9 15 -25 15 -14 0 -25 5
-25 10 0 6 -7 10 -15 10 -7 0 -18 6 -22 14 -4 7 -18 18 -30 25 -13 6 -23 18
-23 26 0 7 -10 15 -22 17 -15 2 -24 11 -26 25 -2 13 -13 24 -28 27 -15 4 -24
14 -24 26 0 13 -9 22 -25 26 -18 4 -25 13 -25 30 0 19 -5 24 -25 24 -20 0 -25
5 -25 25 0 21 -5 25 -30 25 -17 0 -29 3 -29 8 1 4 1 26 0 49 -1 35 -4 42 -23
45 -17 2 -24 11 -26 31 -3 21 -9 27 -28 27 -23 0 -24 3 -24 64 0 59 -2 65 -22
68 -21 3 -23 9 -26 76 -3 69 -4 72 -27 72 -23 0 -25 4 -25 50 0 36 -4 52 -15
56 -8 4 -15 17 -15 30 0 13 -4 24 -10 24 -6 0 -10 88 -10 245 0 233 1 245 19
245 23 0 31 26 31 103 0 54 1 57 25 57 24 0 25 2 25 75 0 73 1 75 24 75 23 0
25 4 28 53 3 45 6 52 26 55 18 3 22 10 22 43 0 35 3 39 25 39 20 0 25 5 25 25
0 18 7 26 25 31 16 4 25 13 25 25 0 11 8 23 18 26 30 12 42 31 42 67 0 32 3
36 25 36 20 0 25 5 25 25 0 20 5 25 24 25 18 0 25 6 28 23 2 18 10 23 41 25
29 2 41 9 49 27 6 13 21 26 34 29 12 3 26 15 29 26 4 14 19 22 46 26 28 5 39
11 39 24 0 18 27 30 68 30 13 0 34 12 47 26 16 17 25 22 26 13 0 -10 2 -11 6
-1 2 6 18 12 34 12 19 0 29 5 29 15 0 11 12 15 44 15 25 0 48 5 51 10 3 6 17
10 31 10 14 0 24 6 24 15 0 12 23 15 128 17 70 2 168 2 217 1 50 -1 145 -2
213 -2z m13410 -17 c9 -14 52 -25 125 -31 40 -3 57 -9 57 -19 0 -9 11 -14 30
-14 17 0 30 -4 30 -9 0 -5 10 -11 23 -13 12 -2 21 -7 19 -13 -2 -5 21 -14 50
-20 44 -8 54 -14 56 -32 2 -17 10 -23 27 -23 17 0 25 -6 27 -22 2 -19 10 -24
41 -26 25 -2 37 -8 37 -18 0 -8 5 -12 10 -9 6 3 10 -1 10 -9 0 -9 7 -16 15
-16 8 0 17 -11 21 -25 4 -18 13 -25 30 -25 19 0 24 -5 24 -25 0 -18 7 -26 25
-31 18 -4 25 -13 25 -30 0 -13 5 -24 10 -24 6 0 10 -9 10 -20 0 -11 7 -23 15
-26 8 -4 15 -17 15 -30 0 -13 4 -24 10 -24 5 0 12 -11 16 -25 3 -14 10 -22 15
-19 5 3 9 -1 9 -8 0 -7 12 -23 27 -35 22 -20 28 -34 31 -83 2 -33 8 -60 12
-60 26 0 40 -35 40 -96 0 -62 1 -64 25 -64 l25 0 0 -164 c0 -99 4 -167 10
-171 6 -3 10 -17 10 -31 0 -15 6 -24 15 -24 19 0 21 -75 3 -84 -10 -5 -10 -7
0 -12 6 -3 12 -19 12 -35 0 -24 -4 -29 -25 -29 -23 0 -25 -3 -25 -50 l0 -50
-925 0 -925 0 0 -80 c0 -79 0 -80 25 -80 20 0 25 -5 25 -25 0 -20 5 -25 25
-25 20 0 25 -5 25 -25 0 -15 6 -25 14 -25 18 0 48 -29 41 -40 -3 -4 6 -11 19
-14 14 -3 28 -15 31 -26 3 -11 17 -23 30 -26 14 -3 23 -11 22 -16 -1 -6 8 -12
21 -14 30 -5 62 -22 62 -33 0 -5 23 -12 50 -16 39 -5 50 -11 50 -25 0 -10 10
-20 23 -24 29 -8 361 -8 381 0 9 3 16 14 16 24 0 13 11 19 46 23 26 2 49 9 53
13 9 14 49 34 65 34 8 0 28 14 44 30 17 17 35 30 41 30 6 0 11 7 11 15 0 8 7
15 15 15 8 0 15 5 15 11 0 29 30 39 114 39 70 0 86 -3 86 -15 0 -12 13 -15 60
-15 33 0 60 -4 60 -10 0 -6 35 -10 85 -10 69 0 85 -3 85 -15 0 -11 12 -15 50
-15 28 0 50 -4 50 -9 0 -5 12 -11 28 -13 l27 -3 0 -90 c0 -85 -1 -90 -22 -93
-17 -3 -23 -12 -28 -53 -6 -43 -10 -49 -31 -49 -19 0 -24 -5 -24 -24 0 -17 -7
-26 -25 -30 -16 -4 -25 -13 -25 -26 0 -13 -9 -22 -25 -26 -14 -3 -25 -13 -25
-23 0 -22 -37 -54 -44 -38 -2 7 -5 4 -5 -5 -1 -10 -8 -18 -16 -18 -8 0 -14 -3
-14 -7 4 -22 -3 -32 -23 -39 -12 -4 -31 -17 -41 -30 -13 -17 -29 -24 -53 -24
-27 0 -35 -5 -40 -24 -5 -20 -14 -25 -55 -31 -38 -5 -49 -11 -49 -25 0 -15
-11 -20 -65 -25 -36 -4 -65 -11 -65 -16 0 -5 -7 -9 -15 -9 -8 0 -14 -6 -13
-12 2 -9 -16 -14 -61 -16 -54 -3 -68 -7 -86 -28 l-21 -24 -307 0 c-212 0 -307
3 -307 11 0 26 -30 38 -101 40 -93 3 -109 7 -109 29 0 14 -11 20 -49 25 -35 5
-50 12 -54 25 -3 12 -18 20 -47 25 -26 4 -52 17 -65 31 -13 14 -34 24 -49 24
-14 0 -26 4 -26 10 0 5 -11 12 -25 16 -14 3 -25 10 -25 15 0 5 -11 9 -25 9
-16 0 -25 6 -25 15 0 8 -5 15 -11 15 -14 0 -39 25 -39 39 0 6 -11 11 -25 11
-20 0 -25 5 -25 24 0 17 -7 26 -25 30 -15 4 -27 16 -31 31 -3 14 -14 25 -27
27 -14 2 -23 11 -25 26 -3 16 -10 22 -28 22 -19 0 -24 5 -24 25 0 20 -5 25
-25 25 -23 0 -25 3 -25 50 0 47 -2 50 -25 50 -20 0 -25 5 -25 25 0 18 -7 28
-25 35 -20 7 -25 17 -25 42 0 67 -12 108 -30 108 -22 0 -30 28 -30 112 0 64
-1 68 -25 74 -24 6 -25 10 -25 80 0 59 -3 74 -15 74 -12 0 -15 13 -15 56 0 34
-4 53 -10 49 -6 -4 -10 32 -10 102 0 73 3 103 10 93 7 -11 10 0 10 38 0 39 4
52 15 52 12 0 15 16 15 80 0 79 0 80 25 80 24 0 25 2 25 64 0 46 5 69 16 80 8
9 19 14 24 11 5 -3 12 25 16 62 6 64 20 93 43 93 6 0 11 18 11 40 0 36 3 40
25 40 20 0 25 5 25 24 0 18 6 25 23 28 16 2 23 11 25 31 3 21 9 27 28 27 20 0
24 5 24 31 0 41 16 69 40 69 15 0 20 7 20 25 0 20 5 25 25 25 20 0 25 5 25 24
0 23 5 25 48 28 39 3 47 6 50 25 2 12 13 24 27 27 13 3 27 15 30 26 4 12 16
20 31 21 38 2 38 2 67 32 18 17 39 27 57 27 17 0 30 4 30 10 0 5 11 12 25 16
14 3 22 10 19 15 -3 5 9 9 25 9 21 0 31 5 31 15 0 12 13 15 56 15 34 0 53 4
49 10 -4 6 15 10 49 10 43 0 56 4 56 15 0 12 29 15 183 17 247 4 456 -4 465
-18z m-21138 1 c0 -10 10 -15 30 -15 17 0 30 -4 30 -8 0 -5 26 -10 58 -11 36
-1 61 -7 68 -16 6 -8 23 -15 38 -15 16 0 25 -4 21 -10 -4 -6 5 -10 19 -10 15
0 26 -6 26 -14 0 -9 17 -16 49 -20 37 -5 51 -12 56 -26 4 -11 17 -23 31 -26
14 -4 24 -13 24 -24 0 -21 19 -30 66 -30 30 0 34 -3 34 -25 0 -20 5 -25 25
-25 20 0 25 -5 25 -25 0 -21 5 -25 30 -25 25 0 30 -4 30 -25 0 -20 5 -25 25
-25 20 0 25 -5 25 -24 0 -20 6 -24 40 -30 22 -3 40 -11 40 -18 0 -29 35 -88
52 -88 10 0 18 -6 18 -14 0 -8 6 -21 14 -28 7 -8 19 -30 27 -51 7 -20 19 -37
25 -37 7 0 16 -10 20 -22 4 -13 16 -31 27 -41 15 -13 22 -33 25 -77 4 -53 7
-61 28 -66 22 -6 24 -11 24 -76 0 -43 4 -67 10 -63 6 3 10 1 10 -4 0 -6 7 -11
15 -11 12 0 15 -17 15 -95 0 -61 4 -95 11 -95 31 0 39 -29 39 -144 l0 -116
-25 0 c-24 0 -25 -2 -25 -75 0 -58 -4 -77 -15 -81 -8 -4 -15 -15 -15 -25 0
-10 -4 -19 -10 -19 -6 0 -10 -28 -10 -64 0 -77 -6 -96 -31 -96 -17 0 -19 -8
-19 -65 0 -51 -3 -65 -15 -65 -8 0 -15 -5 -15 -11 0 -6 -13 -23 -28 -39 -15
-15 -34 -46 -42 -69 -7 -22 -19 -41 -27 -41 -7 0 -13 -11 -13 -25 0 -20 -5
-25 -25 -25 -20 0 -25 -5 -25 -25 0 -14 -4 -25 -10 -25 -5 0 -10 -11 -10 -25
0 -15 -6 -25 -14 -25 -19 0 -48 -29 -41 -41 4 -5 2 -9 -4 -9 -5 0 -25 -13 -43
-30 -20 -18 -43 -30 -60 -30 -23 0 -28 -4 -28 -25 0 -20 -5 -25 -25 -25 -15 0
-25 -6 -25 -14 0 -8 -10 -16 -22 -18 -15 -2 -24 -11 -26 -25 -3 -19 -10 -23
-38 -23 -35 0 -64 -18 -64 -39 0 -6 -16 -11 -35 -11 -25 0 -43 -7 -58 -24 -18
-19 -38 -26 -85 -32 -50 -5 -62 -10 -62 -24 0 -24 -20 -30 -91 -30 -32 0 -59
-4 -59 -9 0 -5 -7 -17 -16 -25 -13 -14 -52 -16 -275 -16 -177 0 -259 3 -259
11 0 28 -30 38 -125 40 -118 2 -135 6 -135 29 0 14 -11 20 -50 25 -27 4 -50
11 -50 16 0 14 -57 39 -90 39 -20 0 -39 9 -54 25 -13 14 -28 25 -35 25 -6 0
-11 7 -11 15 0 9 -9 15 -25 15 -20 0 -25 5 -25 25 0 22 -4 25 -36 25 -21 0
-33 4 -29 10 3 6 -3 10 -14 10 -12 0 -21 7 -21 15 0 9 -9 15 -25 15 -18 0 -26
7 -31 25 -4 15 -16 28 -30 31 -17 4 -24 13 -24 30 0 19 -5 24 -25 24 -20 0
-25 5 -25 25 0 20 -5 25 -25 25 -20 0 -25 5 -25 25 0 20 -5 25 -25 25 -22 0
-25 4 -25 39 0 37 -19 71 -41 71 -5 0 -11 11 -15 25 -3 14 -11 25 -16 25 -10
0 -33 21 -36 33 -1 4 -2 21 -2 37 0 20 -5 30 -15 30 -13 0 -17 12 -14 36 0 4
-4 10 -11 14 -6 4 -12 17 -13 28 -1 12 -7 22 -14 22 -9 0 -13 15 -13 44 0 25
-4 48 -10 51 -5 3 -10 24 -10 45 0 23 -6 42 -14 47 -10 6 -14 46 -17 168 -6
271 -1 385 16 385 11 0 15 12 15 44 0 25 5 48 10 51 6 3 10 28 10 56 0 37 4
49 15 49 9 0 15 9 15 25 0 14 5 25 10 25 6 0 10 9 10 20 0 11 7 23 15 26 8 4
15 15 15 26 0 10 5 16 10 13 6 -3 10 1 10 9 0 9 7 16 15 16 9 0 15 9 15 23 0
26 28 70 40 62 9 -6 20 29 20 67 0 20 6 27 23 30 14 2 23 11 25 26 3 16 10 22
28 22 19 0 24 5 24 24 0 17 7 26 25 30 18 5 25 13 25 31 0 20 5 25 25 25 20 0
25 5 25 25 0 21 5 25 30 25 25 0 30 4 30 25 0 20 5 25 25 25 20 0 25 5 25 25
0 22 4 25 34 25 47 0 66 9 66 30 0 14 11 20 49 25 41 6 50 11 55 31 5 20 13
24 42 24 35 0 64 18 64 39 0 6 18 11 40 11 29 0 40 4 40 15 0 11 12 15 50 15
28 0 50 5 50 10 0 6 25 10 55 10 42 0 55 3 55 15 0 13 39 15 295 15 256 0 295
-2 295 -15z m15616 0 c5 -11 24 -15 80 -15 43 0 74 -4 74 -10 0 -6 30 -10 69
-10 49 0 72 -4 81 -15 7 -8 26 -15 42 -15 18 0 38 -9 52 -25 23 -25 24 -25
208 -25 214 0 248 -4 248 -31 0 -15 7 -19 33 -19 52 0 107 -12 101 -21 -3 -5
2 -9 10 -9 14 0 16 -125 16 -1259 0 -1139 -2 -1259 -16 -1265 -9 -3 -177 -6
-374 -6 l-358 0 -7 46 c-5 35 -12 47 -31 54 -13 5 -24 13 -23 17 1 5 1 23 0
41 -1 27 -5 32 -27 32 -14 0 -23 4 -19 10 3 6 -3 10 -15 10 -12 0 -18 -4 -15
-10 3 -5 -1 -10 -9 -10 -9 0 -16 -7 -16 -15 0 -13 -32 -21 -63 -16 -11 2 -37
-25 -37 -38 0 -6 -13 -11 -29 -11 -16 0 -36 -7 -45 -15 -8 -8 -17 -15 -21 -15
-4 0 -13 -7 -21 -15 -11 -11 -38 -15 -95 -15 -71 0 -79 -2 -79 -19 0 -11 -9
-21 -22 -25 -42 -11 -578 -7 -578 5 0 24 -30 38 -91 41 -57 3 -64 5 -67 25 -3
17 -12 23 -53 28 -28 4 -49 12 -49 19 0 13 -54 36 -83 36 -9 0 -17 7 -17 15 0
16 -30 35 -54 35 -9 0 -33 17 -54 38 -21 21 -46 42 -56 45 -10 4 -20 16 -23
26 -3 11 -16 22 -29 25 -15 4 -24 14 -24 26 0 12 -9 22 -24 26 -21 5 -25 13
-28 52 -3 39 -7 48 -25 50 -17 3 -23 12 -28 53 -6 43 -10 49 -31 49 -19 0 -24
5 -24 25 0 20 -5 25 -25 25 -24 0 -25 3 -25 55 0 52 -1 55 -25 55 -23 0 -25 3
-25 50 0 46 -2 50 -25 50 -24 0 -24 2 -27 93 -3 85 -5 92 -24 95 -20 3 -21 11
-28 157 -4 85 -4 231 0 325 7 170 7 170 31 170 23 0 23 2 23 100 l0 100 25 0
c23 0 25 3 25 50 0 45 3 50 25 56 21 5 25 12 25 45 0 35 3 39 25 39 20 0 25 5
25 25 0 14 5 25 11 25 19 0 40 29 46 65 4 26 12 37 29 41 17 4 24 13 24 30 0
19 5 24 25 24 20 0 25 5 25 25 0 20 5 25 25 25 20 0 25 5 25 25 0 20 5 25 25
25 20 0 25 5 25 24 0 17 7 26 25 30 16 4 25 13 25 25 0 13 9 21 30 26 21 5 30
13 30 26 0 13 7 19 25 20 47 3 50 4 53 26 3 19 12 24 53 29 32 4 49 11 49 20
0 8 10 14 25 14 14 0 25 5 25 10 0 6 14 10 30 10 20 0 30 5 30 15 0 11 12 15
51 15 31 0 48 4 44 10 -4 6 15 10 49 10 43 0 56 3 56 15 0 13 50 15 390 15
338 0 391 -2 396 -15z m2604 0 c0 -12 13 -15 55 -15 30 0 55 -4 55 -10 0 -5
23 -10 50 -10 38 0 50 -4 50 -15 0 -11 11 -15 36 -15 19 0 33 -4 29 -9 -3 -5
4 -12 15 -16 11 -3 20 -11 20 -16 0 -5 18 -9 40 -9 22 0 40 -5 40 -11 0 -20
28 -38 69 -45 30 -5 41 -11 41 -24 0 -21 19 -30 66 -30 30 0 34 -3 34 -25 0
-20 5 -25 25 -25 20 0 25 -5 25 -24 0 -19 6 -25 28 -28 15 -2 28 -9 28 -15 1
-7 2 -17 3 -22 0 -5 11 -11 24 -13 14 -2 23 -11 25 -25 2 -13 13 -24 28 -27
22 -6 24 -11 24 -71 0 -62 -1 -65 -24 -65 -18 0 -25 -6 -28 -22 -2 -19 -10
-24 -40 -26 -21 -2 -38 -7 -38 -13 0 -5 -7 -9 -15 -9 -8 0 -15 -7 -15 -15 0
-8 -9 -15 -20 -15 -13 0 -22 -9 -26 -25 -5 -21 -12 -25 -45 -25 -21 0 -39 -5
-39 -11 0 -15 -22 -35 -47 -43 -12 -4 -25 -16 -28 -27 -9 -27 -71 -27 -80 1
-5 15 -19 21 -56 26 -43 6 -49 9 -49 30 0 19 -5 24 -25 24 -20 0 -25 5 -25 25
l0 25 -116 0 c-89 0 -119 3 -130 15 -12 12 -42 15 -134 15 -96 0 -119 -3 -124
-15 -4 -10 -20 -15 -51 -15 -41 0 -45 -2 -45 -25 0 -20 -5 -25 -25 -25 -25 0
-25 -1 -25 -80 0 -79 0 -80 25 -80 20 0 25 -5 25 -25 0 -20 5 -25 25 -25 20 0
25 -5 25 -25 0 -22 4 -25 40 -25 22 0 40 -5 40 -11 0 -22 30 -39 72 -39 61 0
88 -10 88 -30 0 -19 41 -30 111 -30 31 0 38 -4 43 -25 4 -14 10 -24 14 -24 4
1 26 1 50 0 38 -1 42 -3 42 -26 0 -24 2 -25 74 -25 70 0 74 -1 80 -25 5 -21
12 -25 45 -25 22 0 44 -6 51 -15 7 -8 19 -15 26 -15 8 0 14 -4 14 -10 0 -5 11
-10 25 -10 16 0 25 -6 25 -15 0 -11 11 -15 41 -15 24 0 38 -4 34 -10 -3 -5 1
-10 9 -10 9 0 16 -6 16 -14 0 -8 11 -17 25 -20 15 -4 25 -13 25 -25 0 -19 25
-31 69 -31 13 0 22 -3 19 -6 -9 -8 27 -42 49 -46 14 -2 19 -14 21 -51 3 -42 6
-47 27 -47 23 0 24 -3 27 -77 3 -72 5 -78 26 -81 22 -3 22 -6 22 -142 0 -136
0 -139 -22 -142 -21 -3 -23 -9 -26 -80 -3 -75 -4 -78 -27 -78 -23 0 -25 -4
-25 -50 0 -47 -2 -50 -25 -50 -20 0 -25 -5 -25 -24 0 -19 -7 -26 -30 -31 -23
-5 -30 -12 -30 -31 0 -19 -5 -24 -25 -24 -20 0 -25 -5 -25 -25 0 -20 -5 -25
-25 -25 -14 0 -25 -5 -25 -11 0 -14 -25 -39 -39 -39 -6 0 -11 -7 -11 -15 0 -9
-9 -15 -25 -15 -14 0 -25 -4 -25 -10 0 -5 -6 -10 -14 -10 -8 0 -22 -7 -31 -16
-9 -9 -27 -16 -41 -16 -13 0 -24 -5 -24 -10 0 -5 -4 -7 -9 -3 -5 3 -12 -3 -16
-14 -4 -14 -19 -21 -55 -26 -39 -5 -50 -11 -50 -25 0 -25 -19 -30 -116 -30
-81 0 -84 -1 -90 -25 l-6 -25 -268 0 -268 0 -6 25 c-6 24 -10 25 -81 26 -41 1
-79 3 -85 4 -5 1 -17 3 -25 4 -8 0 -15 9 -15 20 0 19 -39 31 -102 31 -16 0
-28 5 -28 10 0 6 -7 10 -15 10 -8 0 -15 7 -15 15 0 10 -10 15 -30 15 -20 0
-39 9 -54 25 -16 18 -34 25 -59 25 -29 0 -36 4 -41 25 -4 16 -13 25 -26 25
-11 0 -20 6 -20 14 0 8 -10 16 -22 18 -15 2 -24 11 -26 26 -2 15 -10 22 -27
22 -16 0 -25 7 -29 25 -4 15 -16 27 -31 31 -18 4 -25 13 -25 30 0 19 -5 24
-25 24 -20 0 -25 5 -25 25 0 16 -6 25 -15 25 -8 0 -15 7 -15 15 0 8 -6 15 -12
15 -9 0 -8 4 2 10 10 6 11 10 3 10 -8 0 -13 13 -13 31 0 17 4 28 10 24 6 -4
10 5 10 19 0 24 4 26 40 26 36 0 40 3 40 25 0 20 5 25 25 25 14 0 28 7 31 15
4 8 14 15 24 15 10 0 20 7 24 15 3 8 17 15 31 15 19 0 25 5 25 21 0 11 5 17
10 14 6 -3 10 -1 10 4 0 6 7 11 15 11 8 0 15 7 15 15 0 10 10 15 30 15 17 0
30 5 30 10 0 6 9 10 20 10 11 0 20 7 20 15 0 11 11 15 39 15 30 0 44 -6 59
-25 11 -14 25 -25 31 -25 6 0 11 -7 11 -15 0 -9 9 -15 25 -15 14 0 25 -4 25
-10 0 -5 9 -10 20 -10 11 0 23 -7 26 -15 4 -8 12 -15 19 -15 8 0 20 -6 27 -12
7 -7 22 -15 33 -16 11 -2 21 -8 23 -13 2 -5 26 -11 53 -15 41 -5 50 -11 55
-30 l6 -24 218 0 219 0 3 22 c2 13 11 24 23 26 11 3 28 13 38 23 10 10 22 19
27 19 5 0 12 11 16 25 4 16 13 25 25 25 28 0 27 66 -1 75 -11 3 -20 15 -20 25
0 28 -11 50 -24 50 -7 0 -19 11 -26 25 -8 16 -22 25 -36 25 -13 0 -29 7 -36
15 -34 40 -42 45 -79 45 -32 0 -39 4 -39 19 0 22 -19 31 -66 31 -28 0 -35 4
-40 25 -6 24 -10 25 -80 25 -72 0 -74 1 -74 25 0 23 -3 25 -49 25 -44 0 -49 3
-55 25 -6 22 -12 25 -56 26 -68 2 -66 1 -88 26 -11 13 -35 26 -53 30 -19 3
-43 17 -54 30 -13 15 -32 23 -51 23 -23 0 -34 6 -42 25 -7 15 -20 25 -32 25
-11 0 -20 5 -20 11 0 21 -29 39 -64 39 -20 0 -36 5 -36 11 0 13 -25 39 -38 39
-5 0 -13 11 -16 25 -4 16 -13 25 -26 25 -14 0 -20 7 -20 23 0 38 -12 67 -26
67 -20 0 -34 42 -34 101 0 46 -2 49 -25 49 -25 0 -25 1 -25 90 0 57 4 90 11
90 24 0 38 30 41 91 3 57 5 64 25 67 18 3 23 12 29 58 5 43 10 54 24 54 21 0
30 19 30 66 0 30 3 34 25 34 20 0 25 5 25 25 0 20 5 25 25 25 20 0 25 5 25 25
0 20 5 25 25 25 20 0 25 5 25 24 0 17 7 26 24 30 14 3 28 15 31 26 3 11 17 23
31 26 14 4 24 13 24 24 0 21 19 30 65 30 24 0 34 5 38 20 3 11 13 23 24 27 10
4 23 12 28 19 6 7 28 14 50 17 22 3 49 7 60 10 11 3 32 6 48 6 17 1 27 6 27
16 0 13 34 15 245 15 211 0 245 -2 245 -15z m-7450 -700 c0 -9 9 -15 25 -15
l25 0 0 -349 0 -348 -37 -7 c-48 -7 -1560 -8 -1589 0 -41 11 -44 40 -44 375 0
275 2 320 15 325 8 4 15 12 15 20 0 12 122 14 795 14 700 0 795 -2 795 -15z
m2450 -3185 c0 -5 11 -10 25 -10 21 0 25 -5 25 -27 0 -22 2 -25 10 -13 6 10
10 11 10 3 0 -7 6 -13 13 -13 16 0 27 -137 27 -333 l0 -119 57 4 c31 3 59 10
61 16 5 15 262 17 262 2 0 -5 13 -10 29 -10 16 0 36 -6 43 -14 8 -7 30 -19 51
-27 22 -8 37 -20 37 -29 0 -9 11 -23 24 -30 15 -7 26 -23 28 -39 2 -15 12 -30
24 -35 18 -8 22 -21 28 -90 8 -106 8 -552 0 -649 -7 -72 -8 -77 -30 -77 -19 0
-24 -5 -24 -24 0 -27 -28 -36 -114 -36 -70 0 -96 9 -96 31 0 12 -10 21 -25 25
l-25 6 0 293 c0 251 -2 294 -15 299 -8 3 -15 15 -15 26 0 11 -4 20 -10 20 -5
0 -10 14 -10 30 0 25 -4 30 -25 30 -16 0 -25 6 -25 15 0 8 -5 15 -11 15 -5 0
-7 5 -4 10 4 6 -16 10 -54 10 -54 0 -60 -2 -63 -22 -2 -17 -11 -24 -30 -26
-25 -3 -28 -8 -28 -38 0 -21 -4 -33 -10 -29 -5 3 -10 -3 -10 -14 0 -12 -4 -21
-10 -21 -6 0 -10 -69 -10 -187 0 -104 -3 -239 -7 -300 -6 -110 -7 -113 -30
-113 -18 0 -23 -5 -23 -24 0 -28 -28 -36 -120 -36 -71 0 -90 7 -90 31 0 12 -9
21 -25 25 l-25 6 0 719 0 719 25 10 c14 5 25 14 25 20 0 5 7 10 16 10 8 0 12
5 9 10 -4 6 20 10 64 10 41 0 71 -4 71 -10z m-5554 -64 c3 -15 14 -26 27 -28
17 -2 23 -11 25 -35 2 -18 7 -33 12 -33 13 0 22 -54 14 -84 -3 -14 -10 -23
-15 -20 -5 3 -9 -9 -9 -26 0 -34 -19 -60 -44 -60 -9 0 -15 -3 -15 -7 7 -41 2
-43 -101 -43 -64 0 -100 4 -100 11 0 16 -26 39 -44 39 -10 0 -16 9 -16 25 0
18 -5 25 -19 25 -22 0 -31 26 -31 95 0 36 5 55 18 66 9 9 28 30 42 48 14 17
31 31 38 31 7 0 10 5 7 10 -4 6 31 10 99 10 104 0 106 0 112 -24z m10664 14
c0 -5 9 -10 20 -10 13 0 22 -9 26 -25 4 -15 16 -28 30 -31 23 -6 24 -10 24
-94 0 -85 -1 -88 -25 -94 -16 -4 -25 -13 -25 -26 0 -11 -5 -20 -11 -20 -14 0
-39 -25 -39 -39 0 -7 -34 -11 -95 -11 -61 0 -95 4 -95 11 0 13 -20 33 -43 42
-9 3 -22 18 -27 32 -11 29 -13 130 -4 188 6 31 11 37 30 37 17 0 24 6 24 18 0
10 3 22 7 25 11 11 203 8 203 -3z m-20746 -96 c9 -3 16 -14 16 -24 0 -11 10
-20 30 -23 24 -5 30 -12 30 -32 0 -16 6 -25 15 -25 8 0 15 -9 15 -19 0 -10 7
-21 15 -25 8 -3 15 -12 15 -21 0 -8 4 -15 8 -15 5 0 14 -16 22 -35 8 -19 20
-35 27 -35 7 0 13 -5 13 -11 0 -7 10 -21 23 -33 12 -11 27 -34 32 -50 7 -20
21 -32 50 -42 43 -15 55 -8 55 34 0 17 6 22 25 22 23 0 25 4 25 40 0 36 3 40
25 40 20 0 25 5 25 25 0 20 5 25 25 25 21 0 25 5 25 30 0 20 10 39 30 58 17
16 30 39 30 51 0 16 6 21 25 21 20 0 25 5 25 25 l0 25 100 0 c77 0 100 -3 100
-13 0 -8 9 -24 20 -37 11 -13 20 -29 20 -37 0 -7 5 -13 10 -13 16 0 12 -87 -5
-104 -8 -8 -15 -22 -15 -31 0 -9 -11 -26 -25 -39 -14 -13 -25 -33 -25 -45 0
-12 -6 -21 -15 -21 -8 0 -15 -5 -15 -10 0 -6 -11 -23 -25 -38 -14 -15 -25 -32
-25 -39 0 -7 -4 -13 -10 -13 -5 0 -10 -7 -10 -15 0 -8 -7 -15 -15 -15 -9 0
-15 -9 -15 -21 0 -12 -12 -32 -26 -45 -14 -14 -26 -33 -27 -44 -1 -14 -8 -20
-23 -20 -17 0 -24 -7 -26 -25 -2 -14 -7 -25 -12 -24 -15 1 -46 -55 -46 -83 0
-21 -5 -28 -20 -28 -19 0 -20 -7 -20 -217 0 -222 -8 -383 -19 -381 -26 3 -40
-5 -43 -24 -3 -22 -8 -23 -90 -26 l-87 -3 -16 31 c-8 16 -22 30 -30 30 -8 0
-15 9 -15 20 0 11 -4 20 -10 20 -6 0 -10 100 -10 280 0 242 -2 280 -15 280 -9
0 -15 9 -15 21 0 11 -6 27 -12 34 -30 33 -38 45 -38 55 0 5 -4 10 -10 10 -5 0
-10 7 -10 15 0 8 -6 15 -14 15 -8 0 -17 11 -20 25 -4 15 -13 25 -25 25 -14 0
-20 10 -25 40 -5 31 -11 40 -26 40 -15 0 -22 9 -27 30 -3 17 -8 29 -10 26 -10
-10 -43 30 -43 51 0 18 -6 23 -25 23 -22 0 -25 4 -25 40 0 36 -2 40 -25 40
l-25 0 0 105 0 105 25 0 c20 0 25 5 25 25 0 25 1 25 84 25 46 0 91 -3 100 -6z
m10684 -21 c2 -14 11 -23 25 -25 21 -3 22 -8 25 -145 l3 -143 49 0 c28 0 50
-4 50 -9 0 -5 12 -12 26 -15 26 -7 54 -28 54 -41 0 -4 7 -14 16 -23 22 -21 12
-98 -16 -122 -11 -10 -20 -25 -20 -34 0 -13 -12 -16 -66 -16 -43 0 -70 -5 -79
-14 -12 -12 -15 -77 -15 -363 -1 -191 -4 -353 -8 -360 -4 -6 -16 -12 -27 -14
-11 -3 -21 -14 -23 -25 -4 -25 -35 -34 -117 -34 -66 0 -85 7 -85 30 0 10 -10
20 -24 24 -21 5 -24 13 -30 82 -3 43 -6 211 -6 376 l0 298 -75 0 c-66 0 -75 2
-75 18 0 10 -11 25 -25 32 -22 12 -25 20 -25 72 0 32 4 58 10 58 6 0 10 7 10
15 0 8 7 15 15 15 8 0 15 6 15 13 0 7 10 14 22 14 13 1 24 7 26 13 2 5 26 10
53 10 l49 0 0 99 c0 54 3 119 6 145 6 40 10 46 30 46 19 0 24 5 24 25 l0 26
103 -3 c96 -3 102 -4 105 -25z m10686 21 c9 -3 16 -14 16 -25 0 -10 10 -24 23
-30 12 -7 25 -17 29 -23 4 -6 8 -66 8 -133 l0 -123 39 0 c22 0 41 -4 43 -9 2
-6 16 -12 32 -15 30 -5 46 -20 46 -43 0 -7 5 -13 10 -13 6 0 10 -26 10 -59 0
-43 -4 -60 -15 -65 -8 -3 -15 -17 -15 -31 0 -25 -1 -25 -75 -25 l-75 0 0 -349
0 -349 -25 -6 c-18 -5 -25 -13 -25 -31 0 -14 -6 -25 -13 -25 -7 0 -21 -11 -31
-25 -17 -23 -26 -25 -92 -25 -67 0 -73 2 -76 22 -2 14 -12 24 -27 28 -17 4
-25 13 -26 30 -1 13 -7 26 -13 28 -7 2 -12 21 -12 43 0 21 -4 39 -10 39 -6 0
-10 105 -10 294 0 162 -3 301 -6 310 -5 12 -21 16 -65 16 -54 0 -59 2 -65 24
-3 15 -14 26 -27 28 -19 3 -22 11 -25 55 -3 48 -1 53 38 92 23 23 48 41 56 41
8 0 14 5 14 10 0 6 18 10 40 10 l40 0 0 90 c0 53 4 90 10 90 6 0 10 14 10 30
0 17 5 30 10 30 6 0 10 9 10 20 0 11 7 23 15 26 8 4 15 10 15 15 0 29 28 38
112 39 47 0 93 -3 102 -6z m-19849 -344 c-4 -6 12 -10 40 -10 31 0 47 -5 51
-15 4 -8 17 -15 29 -15 13 0 25 -5 27 -10 2 -6 13 -12 25 -13 12 0 24 -9 26
-19 3 -10 14 -18 26 -18 14 0 23 -8 27 -25 4 -16 13 -25 25 -25 12 0 21 -9 25
-25 3 -14 11 -25 16 -25 18 0 37 -34 38 -66 0 -25 5 -33 24 -38 22 -5 24 -11
28 -102 2 -53 2 -149 0 -214 -4 -115 -5 -119 -28 -124 -18 -5 -24 -13 -24 -34
0 -46 -11 -72 -30 -72 -11 0 -20 -10 -24 -24 -4 -15 -14 -26 -29 -28 -14 -2
-23 -11 -25 -25 -3 -17 -10 -23 -28 -23 -19 0 -24 -5 -24 -24 0 -22 -5 -25
-55 -31 -43 -6 -55 -11 -55 -25 0 -25 -37 -30 -215 -30 -178 0 -215 5 -215 30
0 13 -12 19 -50 24 -42 6 -51 11 -56 31 -4 18 -13 25 -30 25 -19 0 -24 5 -24
25 0 20 -5 25 -25 25 -20 0 -25 5 -25 25 0 14 -5 25 -11 25 -18 0 -36 25 -44
60 -4 19 -15 40 -24 47 -9 7 -11 13 -6 13 6 0 3 5 -5 10 -12 7 -16 41 -18 176
-4 183 -2 200 26 230 11 11 22 36 26 55 3 19 17 42 31 53 14 10 25 27 25 37 0
11 9 19 23 21 14 2 23 11 25 26 3 16 10 22 28 22 15 0 24 6 24 15 0 13 18 20
43 16 4 0 7 6 7 14 0 10 10 15 30 15 20 0 30 5 30 15 0 10 11 15 30 16 42 2
47 3 56 12 12 11 266 9 259 -3z m795 0 c0 -5 11 -10 25 -10 18 0 25 -5 25 -19
0 -11 7 -26 15 -34 11 -12 12 -17 2 -20 -6 -3 -2 -6 10 -6 21 -1 21 -2 25
-284 3 -249 5 -285 20 -300 9 -9 21 -17 27 -17 6 0 11 -7 11 -15 0 -9 9 -15
24 -15 13 0 26 -5 28 -12 3 -8 21 -11 53 -9 46 3 75 18 75 40 0 6 11 11 24 11
31 0 33 16 35 300 2 210 10 290 32 290 4 0 10 13 14 28 3 15 15 35 27 43 11 8
26 20 34 27 15 15 144 17 144 2 0 -5 11 -10 24 -10 19 0 26 -7 31 -30 4 -20
13 -30 24 -30 27 0 31 -41 31 -341 0 -305 -4 -356 -31 -364 -13 -5 -20 -20
-25 -56 -4 -27 -9 -48 -11 -45 -9 9 -43 -34 -43 -54 0 -15 -7 -20 -25 -20 -14
0 -25 -5 -25 -11 0 -20 -28 -38 -69 -45 -30 -5 -41 -11 -41 -24 0 -25 -37 -30
-246 -30 l-184 0 -10 25 c-8 22 -16 25 -55 25 -41 0 -45 2 -45 25 0 19 -5 25
-23 25 -23 0 -60 33 -49 45 3 3 -4 8 -16 12 -15 3 -22 13 -22 29 0 17 -6 24
-19 24 -20 0 -31 25 -31 73 0 15 -4 27 -9 27 -5 0 -12 14 -16 30 -4 17 -10 30
-15 30 -5 0 -9 126 -10 280 0 243 2 281 15 286 8 4 15 12 15 20 0 8 5 14 10
14 6 0 10 11 10 24 0 27 24 56 46 56 8 0 14 5 14 10 0 6 32 10 75 10 43 0 75
-4 75 -10z m1800 0 c0 -5 11 -10 25 -10 14 0 25 -6 25 -12 0 -7 11 -18 25 -25
14 -6 25 -7 25 -2 0 5 14 9 30 9 17 0 30 5 30 13 0 7 14 12 31 13 17 1 35 7
40 15 8 12 11 12 19 -1 6 -10 10 -11 10 -2 0 9 31 12 121 12 77 0 118 -4 114
-10 -4 -6 6 -10 24 -10 16 0 36 -6 43 -14 8 -7 30 -19 51 -27 24 -8 37 -19 37
-31 0 -10 5 -18 11 -18 19 0 40 -29 46 -65 4 -24 11 -35 23 -35 25 0 31 -87
30 -438 -1 -335 -4 -360 -34 -364 -13 -2 -22 -11 -24 -24 -4 -26 -27 -34 -109
-34 -73 0 -93 6 -93 30 0 11 -10 20 -25 24 -20 5 -25 14 -31 56 -4 28 -10 50
-14 50 -5 0 -10 120 -12 268 -5 291 -12 332 -55 332 -13 0 -23 5 -23 11 0 24
-30 39 -79 39 -48 0 -51 -2 -51 -25 0 -20 -5 -25 -25 -25 -20 0 -27 -6 -31
-30 -4 -20 -13 -30 -24 -30 -26 0 -30 -43 -30 -357 l0 -282 -22 -3 c-15 -2
-24 -11 -26 -24 -4 -26 -27 -34 -109 -34 -73 0 -93 6 -93 30 0 11 -10 20 -25
24 -20 5 -25 14 -31 56 -4 28 -10 50 -15 50 -5 0 -9 171 -9 380 0 247 4 380
10 380 6 0 10 16 10 35 0 19 4 35 9 35 5 0 12 11 15 25 4 15 16 27 31 31 14 3
25 10 25 15 0 5 29 9 65 9 37 0 65 -4 65 -10z m1500 0 c0 -5 9 -10 19 -10 11
0 26 -7 35 -15 8 -8 20 -15 27 -15 7 0 20 -7 29 -15 17 -15 50 -11 50 6 0 5 5
9 10 9 6 0 21 11 34 25 20 21 32 25 85 25 34 0 61 -4 61 -10 0 -5 11 -10 24
-10 18 0 26 -7 31 -27 3 -15 16 -35 28 -46 22 -19 22 -19 22 -439 0 -394 -1
-420 -18 -430 -10 -5 -22 -21 -27 -34 -5 -13 -16 -24 -25 -24 -9 0 -15 -9 -15
-22 0 -19 -2 -20 -10 -8 -8 13 -10 12 -10 -2 0 -15 -10 -18 -65 -18 -62 0 -65
1 -65 24 0 20 -6 24 -40 30 -22 3 -39 10 -39 14 3 20 -3 32 -16 32 -8 0 -15
-9 -15 -19 0 -15 -10 -21 -39 -26 -27 -4 -42 -13 -49 -31 -11 -24 -13 -24
-151 -24 -153 0 -171 3 -171 31 0 14 -7 19 -30 19 -20 0 -39 10 -58 30 -16 17
-39 30 -51 30 -16 0 -21 6 -21 25 0 19 -5 25 -21 25 -11 0 -17 5 -14 10 3 6 1
10 -4 10 -6 0 -11 7 -11 15 0 8 -7 15 -15 15 -10 0 -15 10 -15 28 0 15 -11 39
-25 54 l-25 27 0 221 c0 209 1 220 19 220 21 0 31 18 31 58 0 16 11 37 25 51
14 13 25 27 25 32 0 5 7 9 15 9 8 0 15 7 15 15 0 8 7 15 15 15 8 0 15 7 15 15
0 8 6 15 13 15 7 0 19 9 27 19 7 11 17 18 22 15 4 -3 8 0 8 5 0 6 14 11 30 11
20 0 30 5 30 15 0 10 10 15 31 15 17 0 28 4 24 10 -4 6 38 10 119 10 77 0 126
-4 126 -10z m872 0 c2 -6 13 -12 26 -13 12 0 22 -7 22 -14 0 -7 10 -13 23 -13
13 0 29 -6 36 -12 11 -10 14 -10 18 0 3 6 15 12 28 12 12 0 25 7 29 15 3 8 17
15 31 15 15 0 24 4 20 10 -4 6 37 10 115 10 78 0 119 -4 115 -10 -3 -6 4 -10
17 -10 36 0 68 -11 62 -21 -3 -5 4 -9 15 -9 11 0 26 -7 35 -15 8 -8 17 -15 21
-15 4 0 14 -7 22 -16 17 -17 62 -11 75 9 5 8 8 8 9 -3 0 -8 4 -4 8 10 4 14 16
27 26 29 11 2 24 9 28 17 4 8 21 14 37 14 17 0 30 5 30 10 0 6 47 10 120 10
73 0 120 -4 120 -10 0 -5 14 -10 30 -10 18 0 33 -6 36 -15 4 -8 13 -15 21 -15
9 0 26 -11 39 -26 13 -14 24 -22 24 -18 0 4 10 -6 22 -22 12 -16 25 -31 29
-34 3 -3 9 -15 13 -27 4 -13 12 -23 17 -23 5 0 9 -43 9 -96 0 -71 4 -99 15
-110 12 -13 15 -49 15 -197 0 -189 -6 -260 -21 -251 -5 3 -9 -31 -9 -75 0 -78
-1 -81 -25 -87 -16 -4 -25 -13 -25 -25 0 -24 -28 -31 -115 -27 -63 3 -70 5
-73 25 -2 14 -11 23 -25 25 -19 3 -22 10 -25 56 -3 43 -6 52 -21 52 -11 0 -22
7 -25 16 -3 9 -6 144 -6 300 l0 284 -25 0 c-20 0 -25 5 -25 25 0 24 -3 25 -55
25 -32 0 -55 -4 -55 -11 0 -14 -25 -39 -39 -39 -6 0 -11 -11 -11 -25 0 -20 -5
-25 -25 -25 l-25 0 0 -300 c0 -313 1 -308 -43 -348 -11 -9 -23 -27 -28 -39 -8
-21 -15 -23 -83 -23 -87 0 -106 5 -106 31 0 10 -7 19 -15 19 -9 0 -15 9 -15
25 0 18 -7 26 -25 31 l-25 6 0 315 c0 207 -3 312 -10 308 -5 -3 -10 -1 -10 4
0 6 -7 11 -15 11 -8 0 -15 9 -15 20 0 15 -7 20 -25 20 -14 0 -25 5 -25 10 0 6
-17 10 -38 10 -31 0 -41 -5 -52 -25 -7 -14 -21 -25 -30 -25 -38 0 -40 -15 -40
-317 0 -189 -4 -293 -10 -293 -5 0 -10 -9 -10 -20 0 -11 -7 -20 -15 -20 -10 0
-15 -10 -15 -30 0 -20 -5 -30 -15 -30 -8 0 -15 -9 -15 -21 0 -11 -4 -17 -10
-14 -5 3 -10 1 -10 -5 0 -7 -29 -10 -87 -8 -81 3 -88 5 -91 25 -2 12 -13 23
-26 27 -13 3 -26 16 -30 28 -3 13 -6 221 -6 464 l0 441 25 19 c14 10 25 24 25
31 0 7 11 13 25 13 14 0 25 5 25 10 0 13 107 13 112 0z m2144 1 c-3 -5 16 -12
44 -16 27 -4 50 -11 50 -16 0 -5 11 -9 24 -9 13 0 26 -7 30 -15 3 -8 12 -15
21 -15 9 0 26 -11 39 -25 13 -14 28 -25 35 -25 6 0 11 -7 11 -15 0 -8 7 -15
15 -15 8 0 15 -5 15 -11 0 -5 5 -7 10 -4 6 3 10 -3 10 -14 0 -12 4 -21 10 -21
5 0 12 -11 16 -25 3 -14 10 -25 15 -25 5 0 9 -11 9 -25 0 -16 6 -25 15 -25 13
0 15 -21 15 -131 0 -130 -7 -159 -39 -159 -6 0 -11 -4 -11 -10 0 -6 -112 -10
-315 -10 l-315 0 0 -39 c0 -22 6 -44 15 -51 8 -7 15 -18 15 -25 0 -14 22 -25
51 -25 10 0 19 -4 19 -10 0 -5 5 -10 11 -10 6 0 17 -7 25 -15 16 -16 55 -19
117 -9 29 5 37 11 37 28 0 17 2 18 10 6 6 -10 10 -11 10 -2 0 7 15 12 40 12
27 0 43 5 46 15 4 8 12 15 19 15 7 0 26 7 41 15 16 8 53 15 82 15 50 0 57 -3
98 -44 36 -36 44 -51 44 -80 0 -25 -4 -36 -15 -36 -9 0 -15 -9 -15 -21 0 -12
-11 -32 -25 -45 -16 -15 -20 -24 -12 -27 7 -3 -5 -6 -25 -6 -33 -1 -38 -4 -38
-25 0 -22 -5 -25 -55 -31 -43 -6 -55 -11 -55 -25 0 -25 -43 -30 -253 -30
l-177 0 -10 24 c-8 21 -17 25 -57 28 -41 3 -48 6 -51 25 -3 18 -12 23 -47 29
-34 5 -45 11 -47 27 -2 13 -13 23 -28 27 -20 5 -26 13 -28 43 -2 24 -8 37 -18
37 -8 0 -14 5 -14 11 0 5 -4 7 -10 4 -6 -4 -10 7 -10 27 0 38 -8 52 -32 61
-16 6 -18 22 -19 124 -1 215 1 235 23 255 12 10 17 18 13 18 -5 0 -4 5 3 12 7
7 12 22 12 35 0 18 6 23 25 23 23 0 25 4 25 40 0 30 4 40 16 40 8 0 12 5 9 10
-3 6 1 10 9 10 9 0 16 7 16 15 0 8 5 15 11 15 7 0 22 11 35 25 13 14 30 25 39
25 9 0 18 7 21 15 4 8 17 15 30 15 13 0 24 4 24 10 0 5 18 13 40 16 22 4 40
10 40 15 0 5 61 9 136 9 78 0 133 -4 130 -9z m1394 -1 c0 -5 9 -10 21 -10 14
0 24 -10 32 -30 6 -17 19 -30 28 -30 9 0 20 -7 23 -16 3 -9 6 -207 6 -440 0
-368 -2 -425 -15 -430 -8 -4 -15 -14 -15 -24 0 -10 -7 -20 -15 -24 -8 -3 -15
-14 -15 -24 0 -24 -34 -32 -131 -32 -67 0 -69 1 -69 25 0 20 -5 25 -24 25 -20
0 -24 6 -30 41 -4 22 -15 50 -26 62 -19 20 -20 36 -20 379 0 232 4 358 10 358
6 0 10 11 10 25 0 14 4 25 10 25 5 0 13 18 16 40 5 30 11 40 25 40 10 0 21 9
24 21 4 13 12 18 21 15 9 -3 12 -1 9 4 -4 6 19 10 59 10 37 0 66 -4 66 -10z
m2190 1 c0 -5 12 -12 26 -15 29 -8 54 -29 54 -45 0 -6 7 -11 15 -11 11 0 15
-13 15 -52 0 -38 3 -49 10 -38 8 12 10 9 10 -12 0 -18 5 -28 15 -28 12 0 15
-15 15 -74 0 -70 1 -74 25 -80 24 -6 25 -10 25 -81 0 -60 3 -75 15 -75 8 0 15
-5 15 -12 0 -6 3 -8 7 -4 4 4 12 -10 18 -31 6 -21 18 -39 27 -41 13 -3 17 12
23 91 7 87 9 96 31 106 23 10 24 15 24 105 0 74 3 95 15 100 8 3 15 15 15 26
0 11 4 20 9 20 6 0 11 21 13 48 2 38 7 49 26 57 12 5 22 15 22 22 0 8 13 13
30 13 17 0 30 5 30 10 0 13 67 13 72 0 2 -5 12 -11 24 -13 33 -5 84 -63 84
-97 0 -17 4 -30 9 -30 5 0 12 -11 15 -25 4 -14 11 -25 16 -25 6 0 10 -34 10
-79 0 -75 1 -79 24 -85 22 -5 24 -11 27 -89 4 -94 18 -117 68 -117 28 0 31 3
31 34 0 71 12 124 30 129 20 5 30 47 30 132 0 59 2 63 25 69 23 6 25 11 25 65
0 54 2 59 25 65 16 4 25 13 25 25 0 13 9 21 30 26 17 4 30 11 30 16 0 5 21 9
46 9 27 0 43 -4 39 -10 -3 -6 4 -10 18 -10 32 0 77 -40 77 -68 0 -12 5 -22 10
-22 6 0 10 -24 10 -54 0 -30 -4 -58 -10 -61 -5 -3 -10 -24 -10 -46 0 -26 -5
-42 -15 -45 -8 -4 -15 -17 -15 -30 0 -13 -4 -24 -9 -24 -5 0 -12 -22 -16 -50
-4 -27 -11 -50 -16 -50 -5 0 -9 -11 -9 -24 0 -13 -4 -26 -9 -28 -6 -1 -12 -16
-15 -32 -3 -16 -10 -32 -15 -35 -5 -3 -12 -23 -16 -44 -4 -20 -11 -40 -16 -43
-5 -3 -9 -16 -9 -29 0 -13 -5 -25 -11 -27 -6 -2 -14 -27 -17 -56 -2 -28 -8
-49 -13 -46 -5 3 -9 -2 -9 -10 0 -9 -7 -16 -15 -16 -11 0 -15 -12 -15 -50 0
-47 -2 -50 -25 -50 -21 0 -25 -5 -25 -30 0 -25 -4 -30 -25 -30 -20 0 -25 -5
-25 -25 0 -25 -1 -25 -82 -25 -101 0 -128 7 -128 30 0 11 -10 20 -25 24 -18 5
-25 13 -25 31 0 16 -6 25 -15 25 -9 0 -15 9 -15 25 0 14 -4 25 -9 25 -5 0 -13
29 -16 65 -4 36 -11 65 -16 65 -5 0 -9 11 -9 24 0 13 -5 26 -11 28 -5 2 -13
27 -16 57 -5 50 -33 98 -47 84 -3 -4 -6 0 -6 7 0 10 -3 11 -11 3 -5 -5 -13
-36 -16 -67 -3 -31 -10 -56 -14 -56 -5 0 -9 -13 -9 -29 0 -16 -5 -31 -11 -33
-6 -2 -14 -36 -17 -76 -2 -40 -8 -72 -12 -72 -4 0 -11 -11 -14 -25 -4 -14 -11
-25 -16 -25 -6 0 -10 -11 -10 -24 0 -17 -7 -26 -25 -30 -15 -4 -25 -13 -25
-25 0 -23 -35 -31 -136 -31 -46 0 -74 4 -74 11 0 14 -25 39 -39 39 -6 0 -11 9
-11 20 0 12 -10 25 -24 31 -19 9 -26 22 -31 59 -5 35 -12 49 -25 53 -13 3 -20
18 -25 56 -4 28 -11 51 -16 51 -5 0 -9 9 -9 21 0 11 -7 27 -15 35 -8 9 -15 29
-15 45 0 16 -4 29 -9 29 -5 0 -12 16 -15 35 -4 19 -11 35 -16 35 -6 0 -10 18
-10 40 0 29 -4 40 -15 40 -10 0 -15 10 -15 30 0 17 -4 30 -10 30 -5 0 -10 11
-10 24 0 13 -5 26 -11 28 -11 4 -17 27 -18 76 -1 19 -5 31 -11 27 -6 -4 -10 5
-10 19 0 16 -6 26 -15 26 -11 0 -15 11 -15 40 0 22 4 40 10 40 5 0 12 11 16
25 3 14 10 25 15 25 5 0 9 6 9 13 0 7 14 21 30 30 17 10 30 22 30 28 0 5 27 9
60 9 33 0 60 -4 60 -9z m2015 -1 c-4 -6 10 -10 34 -10 22 0 46 -7 55 -15 8 -8
26 -15 40 -15 16 0 26 -6 26 -15 0 -9 9 -15 25 -15 19 0 25 -5 25 -20 0 -12 6
-20 13 -19 27 3 37 -2 37 -21 0 -11 7 -20 15 -20 8 0 15 -5 15 -11 0 -5 4 -8
9 -4 5 3 11 -5 13 -17 2 -13 9 -22 16 -20 6 1 11 -1 11 -5 -3 -20 2 -34 10
-29 10 7 21 -17 21 -45 0 -10 5 -19 10 -19 6 0 10 -11 10 -25 0 -14 5 -25 10
-25 7 0 10 -37 9 -105 -1 -92 -4 -105 -20 -110 -10 -3 -21 -15 -25 -27 -5 -16
-8 -18 -15 -7 -6 10 -9 11 -9 2 0 -10 -70 -13 -315 -13 l-315 0 0 -40 c0 -23
6 -44 16 -52 8 -7 23 -21 32 -30 9 -10 25 -18 36 -18 10 0 27 -10 38 -22 17
-20 29 -23 91 -22 44 0 72 5 75 12 2 7 10 12 18 12 8 0 14 5 14 10 0 6 13 10
29 10 16 0 36 7 45 15 8 8 24 15 34 15 11 0 22 5 24 10 2 6 34 13 72 17 58 5
70 4 78 -10 5 -10 17 -17 27 -17 12 0 21 -10 25 -25 4 -14 11 -25 16 -25 6 0
10 -18 10 -40 0 -22 -4 -40 -10 -40 -5 0 -10 -11 -10 -24 0 -16 -7 -26 -21
-29 -11 -3 -23 -15 -26 -26 -3 -12 -15 -21 -32 -23 -18 -2 -27 -10 -29 -25 -3
-18 -12 -23 -58 -29 -43 -5 -54 -10 -54 -25 0 -25 -50 -31 -260 -27 -173 3
-175 3 -178 26 -3 19 -9 22 -53 22 -45 0 -49 2 -49 23 0 20 -7 25 -47 33 -39
7 -49 13 -51 32 -3 16 -10 22 -30 22 -21 0 -24 2 -12 10 9 6 10 10 3 10 -6 0
-14 14 -18 30 -4 17 -13 30 -21 30 -9 0 -12 5 -9 10 3 6 -1 10 -9 10 -11 0
-16 9 -16 30 0 17 -4 30 -9 30 -5 0 -13 10 -16 21 -6 17 -9 19 -16 8 -5 -8 -9
61 -9 169 0 150 3 186 15 199 8 8 13 19 9 24 -3 5 2 12 10 15 9 3 16 17 16 30
0 13 5 24 11 24 15 0 39 26 39 43 0 17 58 80 89 96 12 7 21 18 21 26 0 9 10
15 25 15 16 0 25 6 25 15 0 9 9 15 24 15 13 0 26 5 28 11 2 6 25 13 51 16 25
3 44 9 41 14 -3 5 54 9 126 9 85 0 129 -4 125 -10z m2895 0 c0 -5 11 -10 24
-10 14 0 31 -7 40 -15 8 -8 24 -15 35 -15 12 0 21 -4 21 -10 0 -5 7 -10 15
-10 8 0 15 5 15 10 0 6 11 10 25 10 16 0 25 6 25 15 0 8 9 15 21 15 11 0 17 5
14 10 -4 6 16 10 54 10 33 0 63 -4 66 -10 3 -5 17 -10 30 -10 18 0 24 -6 27
-27 2 -20 9 -29 24 -31 21 -3 22 -9 29 -190 11 -253 0 -687 -17 -708 -33 -38
-41 -44 -63 -44 -17 0 -25 -6 -27 -22 -3 -21 -9 -23 -65 -26 -52 -2 -63 0 -63
13 0 8 -5 15 -11 15 -5 0 -7 5 -4 10 3 6 -5 10 -19 10 -13 0 -32 7 -41 17 -11
10 -19 13 -23 6 -4 -6 -29 -14 -55 -18 -38 -6 -50 -13 -57 -31 -9 -24 -12 -24
-144 -24 -147 0 -166 3 -166 30 0 13 -11 19 -50 24 -27 4 -51 11 -51 16 -1 6
-2 16 -3 23 0 6 -13 13 -28 15 -22 3 -28 9 -28 28 0 19 -5 24 -25 24 -20 0
-25 5 -25 25 0 16 -6 25 -15 25 -9 0 -15 9 -15 25 0 14 -4 25 -9 25 -5 0 -12
11 -15 25 -4 14 -11 25 -16 25 -6 0 -10 21 -10 46 0 27 -4 43 -10 39 -6 -4
-11 28 -12 87 -2 134 3 213 13 216 5 2 9 17 9 33 0 19 5 29 15 29 9 0 15 9 15
25 0 14 4 25 9 25 5 0 12 11 15 25 4 14 11 25 16 25 6 0 10 5 10 11 0 15 101
111 140 132 17 9 40 17 51 17 10 0 19 7 19 15 0 9 9 15 25 15 14 0 25 5 25 10
0 6 47 10 120 10 73 0 120 -4 120 -10z m750 0 c0 -5 11 -10 25 -10 16 0 25 -6
25 -15 0 -8 7 -15 15 -15 8 0 15 -5 15 -11 0 -6 7 -17 15 -25 8 -9 15 -26 15
-40 0 -13 5 -24 10 -24 6 0 10 -7 10 -16 0 -8 4 -13 9 -10 5 3 12 -25 16 -64
5 -53 11 -71 24 -75 20 -6 20 -7 27 -92 5 -58 8 -63 30 -63 22 0 24 -4 24 -49
0 -44 2 -49 25 -53 22 -5 25 -2 25 22 0 18 8 31 25 40 22 12 25 20 25 73 0 56
22 127 40 127 4 0 11 34 15 75 5 60 10 75 26 80 10 4 18 9 17 13 0 4 3 26 7
50 6 35 11 42 31 42 15 0 24 6 24 15 0 9 9 15 25 15 14 0 25 5 25 10 0 6 18
10 40 10 22 0 40 -4 40 -10 0 -5 10 -10 23 -10 22 0 57 -30 57 -49 0 -5 6 -11
13 -14 8 -3 12 -31 11 -100 0 -85 -3 -100 -22 -120 -11 -12 -24 -41 -28 -65
-4 -23 -10 -42 -15 -42 -5 0 -9 -11 -9 -25 0 -14 -7 -28 -15 -31 -8 -4 -15
-17 -15 -29 0 -13 -4 -25 -9 -27 -6 -1 -13 -19 -16 -38 -3 -19 -10 -36 -16
-38 -5 -2 -9 -13 -9 -24 0 -10 -7 -26 -15 -34 -8 -9 -15 -29 -15 -45 0 -16 -4
-29 -10 -29 -5 0 -10 -5 -10 -11 0 -6 -7 -17 -15 -25 -8 -9 -15 -33 -15 -55 0
-21 -4 -39 -10 -39 -5 0 -12 -11 -16 -25 -3 -14 -10 -25 -15 -25 -5 0 -9 -11
-9 -25 0 -14 -7 -28 -15 -31 -8 -4 -15 -16 -15 -28 0 -17 -2 -18 -10 -6 -8 13
-10 12 -10 -2 0 -11 -8 -18 -18 -18 -11 0 -24 -11 -30 -25 -11 -24 -16 -25
-91 -25 -59 0 -84 4 -95 16 -12 12 -16 12 -17 2 -1 -7 -4 -2 -8 12 -4 15 -15
26 -28 28 -17 3 -23 12 -28 53 -4 28 -12 49 -19 49 -14 0 -36 55 -36 88 0 12
-4 22 -10 22 -5 0 -12 11 -16 25 -3 14 -10 25 -15 25 -5 0 -9 15 -9 34 0 21
-6 36 -15 40 -8 3 -15 17 -15 31 0 14 -4 25 -10 25 -5 0 -10 9 -10 21 0 11 -7
27 -15 35 -13 13 -21 57 -16 87 0 4 -6 7 -14 7 -8 0 -15 7 -15 15 0 8 -4 15
-10 15 -5 0 -10 18 -10 40 0 30 -4 40 -16 40 -8 0 -13 4 -9 9 3 5 -1 16 -9 23
-7 8 -17 38 -21 66 -4 29 -11 54 -16 58 -12 7 -12 61 0 68 4 3 11 24 15 46 3
22 12 40 19 40 7 0 21 11 31 25 16 22 27 25 77 25 33 0 59 -4 59 -10z m1440 0
c0 -5 16 -10 35 -10 24 0 35 -5 35 -15 0 -9 9 -15 23 -15 28 0 87 -28 87 -41
0 -5 9 -9 20 -9 13 0 24 -10 30 -25 6 -15 17 -25 30 -25 15 0 20 -7 20 -25 0
-18 7 -26 25 -31 18 -4 25 -13 25 -29 0 -13 7 -25 15 -29 8 -3 15 -15 15 -26
0 -11 4 -20 9 -20 5 0 12 -25 16 -55 3 -30 11 -55 16 -55 14 0 11 -64 -6 -104
-8 -20 -12 -36 -8 -36 4 0 -3 -9 -15 -20 -12 -11 -26 -20 -32 -20 -5 0 -10 -4
-10 -10 0 -6 -110 -10 -309 -10 -170 0 -316 -3 -325 -6 -18 -7 -22 -54 -5 -54
17 0 39 -27 39 -49 0 -19 15 -27 43 -22 4 1 10 -6 13 -14 3 -8 10 -13 14 -10
5 3 16 -3 26 -12 21 -22 135 -26 142 -5 2 6 15 12 28 12 13 0 24 4 24 9 0 5
23 12 50 16 28 4 50 11 50 16 0 16 59 39 103 39 61 0 107 -17 107 -41 0 -10 5
-19 11 -19 21 0 39 -29 39 -64 0 -20 -4 -36 -10 -36 -5 0 -10 -11 -10 -25 0
-15 -6 -25 -14 -25 -8 0 -16 -10 -18 -22 -2 -19 -12 -25 -50 -32 -36 -7 -48
-14 -48 -27 0 -14 -12 -19 -55 -24 -43 -6 -55 -11 -55 -25 0 -10 -7 -21 -16
-24 -21 -8 -353 -8 -393 0 -21 4 -31 12 -31 24 0 14 -11 20 -49 25 -41 5 -50
11 -53 28 -2 15 -11 23 -30 25 -19 2 -28 10 -30 25 -2 14 -11 23 -25 25 -17 3
-23 10 -23 28 0 19 -5 24 -25 24 -19 0 -25 5 -25 20 0 12 -11 31 -24 43 -16
15 -27 39 -31 70 -4 26 -11 47 -16 47 -5 0 -9 11 -9 24 0 14 -4 28 -10 31 -5
3 -10 42 -10 86 0 46 4 79 10 79 6 0 10 11 10 25 0 14 4 25 9 25 4 0 11 25 15
55 7 60 23 95 43 95 7 0 13 11 13 24 0 17 7 26 25 30 18 5 25 13 25 31 0 16 6
25 16 25 8 0 12 5 9 10 -3 6 0 10 8 10 8 0 17 7 21 15 3 8 15 15 26 15 11 0
20 4 20 9 0 18 32 41 56 41 14 0 32 7 40 15 9 8 29 15 45 15 18 0 28 4 24 10
-4 6 42 10 129 10 84 0 136 -4 136 -10z m1390 0 c-12 -8 -11 -10 7 -10 30 0
54 -11 47 -21 -3 -5 4 -9 15 -9 18 0 21 -6 21 -40 0 -36 3 -40 25 -40 l25 0 0
-394 c0 -348 -2 -395 -16 -400 -8 -3 -12 -10 -9 -16 3 -6 -1 -13 -9 -16 -10
-4 -16 -18 -16 -35 0 -24 -4 -29 -24 -29 -18 0 -25 -6 -28 -22 -3 -21 -10 -23
-63 -26 -85 -5 -125 4 -125 28 0 10 -9 21 -19 25 -11 3 -23 16 -27 28 -4 12
-12 25 -18 29 -8 5 -12 117 -14 370 -3 364 2 493 19 483 5 -4 9 0 9 8 0 8 7
17 15 21 8 3 15 14 15 25 0 14 9 23 25 27 14 3 25 10 25 15 0 5 30 9 68 9 47
0 63 -3 52 -10z m-9446 -756 c8 -3 18 -21 22 -40 3 -19 9 -33 12 -30 9 9 31
-28 32 -51 0 -16 -6 -23 -19 -23 -15 0 -20 -10 -26 -55 -5 -44 -10 -55 -25
-55 -14 0 -20 -11 -25 -50 -6 -44 -10 -50 -31 -50 -21 0 -24 -4 -24 -40 0 -22
-5 -40 -11 -40 -19 0 -39 -28 -39 -54 0 -14 -5 -26 -11 -26 -14 0 -39 -25 -39
-39 0 -6 -5 -11 -11 -11 -6 0 -17 -7 -25 -15 -23 -22 -134 -21 -156 3 -9 9
-24 23 -32 30 -9 7 -16 23 -16 37 0 13 -6 26 -12 29 -10 5 -10 7 0 12 6 3 12
20 12 37 1 18 7 43 15 57 8 14 14 35 15 46 0 15 8 24 25 28 18 5 25 13 25 31
0 14 5 25 10 25 6 0 10 9 10 20 0 11 7 23 15 26 8 4 15 17 15 30 0 15 6 24 15
24 9 0 15 9 15 25 0 16 6 25 15 25 9 0 15 9 15 24 0 18 6 25 23 28 14 2 23 11
25 26 3 21 8 22 87 22 46 0 90 -3 99 -6z"/>
<path d="M23153 31293 c-40 -2 -73 -8 -73 -13 0 -6 -18 -10 -41 -10 -22 0 -38
-4 -35 -9 7 -10 -27 -21 -69 -21 -23 0 -27 -3 -15 -10 12 -8 9 -10 -12 -10
-18 0 -28 -5 -28 -15 0 -11 -12 -15 -50 -15 -47 0 -50 -2 -50 -25 0 -22 -4
-25 -40 -25 -38 0 -46 -7 -42 -41 1 -4 -17 -9 -38 -13 -30 -5 -40 -11 -40 -25
0 -12 -11 -23 -27 -29 -16 -6 -22 -11 -15 -11 7 -1 -3 -16 -22 -35 -20 -18
-36 -38 -36 -45 0 -6 -7 -11 -15 -11 -9 0 -15 -9 -15 -25 0 -20 -5 -25 -25
-25 -20 0 -25 -5 -25 -25 0 -16 -6 -25 -15 -25 -8 0 -15 -7 -15 -15 0 -8 -4
-15 -10 -15 -5 0 -10 -6 -10 -13 0 -17 -35 -59 -43 -51 -3 3 -9 -9 -12 -28 -4
-19 -17 -42 -31 -53 -17 -13 -24 -28 -25 -54 0 -20 -3 -31 -5 -24 -4 8 -11 7
-25 -5 -14 -12 -19 -29 -19 -64 0 -45 -21 -85 -39 -73 -5 2 -11 -26 -14 -62
-3 -37 -10 -69 -16 -71 -6 -2 -9 -7 -6 -12 3 -5 -1 -15 -9 -23 -10 -9 -17 -51
-22 -131 -4 -71 -10 -112 -15 -104 -5 7 -9 -52 -9 -139 0 -87 4 -153 10 -155
5 -1 12 -45 16 -95 4 -51 11 -93 15 -93 5 0 9 -15 9 -34 0 -19 5 -36 10 -38 6
-2 14 -45 17 -96 3 -50 10 -92 14 -92 5 0 9 -11 9 -24 0 -13 6 -26 13 -28 8
-3 13 -41 15 -130 4 -121 5 -126 28 -139 23 -12 24 -17 24 -109 0 -119 8 -161
30 -167 14 -4 18 -19 22 -74 3 -38 9 -73 13 -77 3 -4 1715 -7 3803 -7 3030 0
3797 3 3798 13 1 6 2 19 3 27 0 8 10 15 20 15 17 0 20 11 26 100 4 55 11 100
16 100 5 0 9 13 9 29 0 16 4 31 10 33 5 2 13 42 16 91 4 48 11 87 15 87 5 0 9
15 9 33 0 17 7 45 15 61 9 17 15 56 15 97 0 38 4 69 9 69 5 0 13 29 16 65 4
36 11 65 16 65 5 0 9 28 9 63 1 39 6 69 15 81 9 12 15 42 15 77 0 37 4 59 13
62 16 5 15 389 -2 395 -6 2 -11 25 -11 50 0 26 -7 60 -15 76 -8 15 -15 46 -15
67 0 22 -4 39 -10 39 -5 0 -10 11 -10 25 0 16 -6 25 -15 25 -11 0 -15 11 -15
36 0 41 -15 74 -34 74 -9 0 -17 18 -21 50 -5 36 -12 51 -26 55 -10 4 -19 15
-19 25 0 11 -13 33 -30 50 -17 17 -30 41 -30 55 0 20 -5 25 -25 25 -22 0 -25
4 -25 35 0 31 -3 35 -25 35 -21 0 -25 5 -25 30 0 25 -4 30 -25 30 -20 0 -25 5
-25 24 0 17 -7 26 -25 30 -16 4 -25 13 -25 27 0 11 -10 24 -22 29 -13 5 -20 9
-16 9 19 2 -29 41 -49 41 -18 0 -23 6 -23 25 0 20 -5 25 -24 25 -17 0 -26 7
-30 25 -5 21 -12 25 -41 25 -31 0 -35 3 -35 25 0 23 -4 25 -45 25 -33 0 -50 6
-68 24 -18 17 -40 26 -87 31 -41 5 -58 10 -49 16 9 6 1 9 -24 9 -21 0 -36 4
-33 9 3 4 -39 11 -94 15 -99 6 -5809 5 -5947 -1z"/>
<path d="M21344 25601 c4 -5 -71 -11 -174 -13 -105 -2 -184 -7 -188 -13 -4 -5
-27 -11 -52 -13 -25 -2 -47 -7 -50 -11 -3 -5 -32 -10 -66 -13 -44 -3 -67 -10
-83 -25 -17 -16 -42 -23 -97 -28 -61 -6 -74 -10 -74 -25 0 -18 -41 -30 -102
-30 -21 0 -28 -5 -28 -19 0 -20 -26 -31 -77 -31 -28 0 -33 -3 -33 -25 0 -23
-4 -25 -45 -25 -39 0 -45 -3 -51 -25 -4 -18 -13 -25 -30 -25 -13 0 -24 -4 -24
-10 0 -5 -11 -12 -25 -16 -14 -3 -25 -10 -25 -14 0 -5 -13 -11 -28 -15 -15 -3
-36 -17 -46 -30 -10 -14 -27 -25 -36 -25 -10 0 -20 -9 -23 -20 -3 -11 -13 -23
-23 -27 -10 -3 -35 -24 -56 -45 -21 -21 -41 -38 -44 -38 -10 0 -34 -28 -34
-39 0 -6 -11 -11 -25 -11 -20 0 -25 -5 -25 -25 0 -20 -5 -25 -25 -25 -20 0
-25 -5 -25 -25 0 -20 -5 -25 -24 -25 -19 0 -26 -7 -31 -30 -5 -23 -12 -30 -31
-30 -19 0 -24 -5 -24 -25 0 -20 -5 -25 -25 -25 -19 0 -25 -5 -25 -21 0 -12 -7
-27 -14 -33 -8 -6 -16 -17 -18 -25 -2 -8 -18 -29 -35 -47 -18 -18 -33 -35 -33
-39 0 -4 -13 -20 -30 -37 -16 -16 -30 -36 -30 -44 0 -8 -4 -14 -8 -14 -5 0
-17 -16 -28 -35 -10 -19 -22 -35 -26 -35 -5 0 -8 -9 -8 -19 0 -11 -7 -26 -15
-35 -8 -8 -15 -23 -15 -34 0 -11 -7 -22 -15 -26 -8 -3 -15 -15 -15 -26 0 -11
-4 -20 -10 -20 -13 0 -40 -54 -40 -79 0 -14 -9 -23 -25 -27 -22 -6 -25 -11
-25 -55 0 -27 -4 -49 -10 -49 -5 0 -12 -11 -16 -25 -3 -14 -10 -25 -15 -25 -5
0 -9 -26 -9 -57 0 -76 -8 -103 -30 -103 -15 0 -19 -13 -25 -90 -4 -49 -11 -90
-16 -90 -5 0 -9 -12 -9 -26 0 -14 -4 -23 -9 -19 -6 3 -11 -39 -14 -102 -2 -60
-3 -1328 -3 -2820 l1 -2711 22 -20 c19 -16 23 -33 29 -116 7 -90 8 -97 30
-102 22 -6 24 -11 24 -79 0 -57 3 -74 16 -79 8 -3 12 -10 9 -16 -3 -5 1 -10 9
-10 12 0 16 -11 16 -45 0 -36 5 -51 25 -69 14 -13 25 -34 25 -49 0 -14 7 -32
15 -41 8 -8 15 -17 15 -21 0 -4 7 -13 15 -21 8 -9 15 -26 15 -40 0 -13 5 -24
10 -24 6 0 10 -5 10 -11 0 -6 7 -17 15 -25 8 -9 15 -26 15 -39 0 -12 7 -25 15
-29 8 -3 15 -17 15 -31 0 -18 5 -25 20 -25 15 0 20 -7 20 -25 0 -16 6 -25 15
-25 8 0 15 -5 15 -11 0 -6 12 -24 28 -39 41 -44 52 -58 52 -68 0 -5 11 -14 24
-21 13 -8 26 -26 30 -42 4 -21 11 -29 26 -29 15 0 20 -7 20 -25 0 -17 9 -29
30 -40 17 -9 30 -22 30 -30 0 -8 7 -15 15 -15 8 0 22 -11 31 -25 9 -14 25 -25
35 -25 11 0 19 -7 19 -15 0 -8 9 -15 19 -15 11 0 23 -9 26 -20 3 -11 17 -23
30 -26 14 -3 25 -15 27 -27 2 -16 11 -23 31 -25 18 -2 27 -9 27 -22 0 -19 19
-30 51 -30 14 0 19 -7 19 -25 0 -20 5 -25 24 -25 37 0 56 -10 56 -31 0 -15 7
-19 40 -19 22 0 40 -5 40 -11 0 -20 28 -38 69 -45 23 -4 41 -10 41 -15 0 -5 9
-9 19 -9 10 0 21 -7 25 -15 3 -8 17 -15 31 -15 16 0 25 -6 25 -15 0 -9 9 -15
25 -15 14 0 25 -4 25 -10 0 -5 16 -10 36 -10 19 0 33 -4 30 -9 -3 -5 16 -12
44 -16 27 -4 50 -11 50 -16 0 -5 18 -9 39 -9 22 0 41 -5 43 -11 2 -6 25 -13
51 -16 26 -3 47 -9 47 -13 0 -5 23 -11 50 -15 28 -4 50 -11 50 -15 0 -5 75
-11 168 -13 92 -3 202 -10 245 -16 58 -8 1373 -10 4923 -9 4078 3 4846 5 4853
17 7 11 9 11 14 0 4 -10 6 -10 6 -1 1 9 41 12 167 12 92 0 163 4 160 9 -3 5
12 11 34 15 22 3 40 11 40 16 0 6 17 10 38 10 21 0 47 7 58 15 10 8 36 15 56
15 20 0 38 5 40 10 2 6 17 13 33 16 17 3 32 9 33 15 2 5 26 9 53 9 37 0 49 4
49 15 0 8 7 15 15 15 8 0 15 4 15 10 0 5 16 12 35 16 20 3 41 15 48 25 8 10
32 21 56 25 29 5 38 10 29 15 -10 7 -9 9 5 9 10 0 16 4 12 9 -3 6 11 13 32 17
21 4 46 17 56 31 13 16 29 23 53 23 30 0 34 3 34 25 0 21 5 25 30 25 25 0 30
4 30 25 0 20 5 25 25 25 14 0 25 5 25 11 0 13 20 33 43 42 9 3 17 11 17 17 0
5 8 10 19 10 11 0 21 9 24 22 4 12 9 19 12 16 9 -9 45 23 39 34 -3 4 6 8 20 8
19 0 27 7 32 25 4 18 13 25 30 25 19 0 24 5 24 25 0 16 6 25 15 25 8 0 15 5
15 11 0 6 23 33 50 60 28 27 50 53 50 59 0 5 7 10 15 10 8 0 15 9 15 20 0 13
9 22 25 26 15 4 25 13 25 24 0 10 7 20 15 24 8 3 15 15 15 26 0 12 5 18 10 15
6 -3 10 -1 10 4 0 6 7 11 15 11 9 0 15 9 15 23 0 16 9 28 25 35 21 10 25 19
25 52 0 34 4 41 25 46 21 5 25 12 25 40 0 27 5 36 23 43 15 6 26 23 35 55 7
27 18 46 26 46 15 0 26 30 26 72 0 17 7 29 19 33 21 6 31 43 31 111 0 24 5 44
10 44 6 0 10 11 10 25 0 16 6 25 15 25 11 0 15 12 15 49 0 34 4 51 15 55 8 3
15 17 15 31 0 14 4 25 8 25 5 0 12 56 15 125 4 69 11 134 17 145 5 10 10 55
10 99 0 58 4 81 13 81 8 0 7 4 -3 10 -10 7 -11 10 -2 10 10 0 11 488 8 2438
-4 2375 -6 2585 -35 2712 -6 25 -10 78 -11 118 0 41 -4 72 -10 72 -5 0 -10 11
-10 25 0 14 -7 28 -15 31 -11 5 -15 21 -15 60 0 39 -4 56 -15 60 -8 4 -15 12
-15 20 0 8 -4 14 -10 14 -5 0 -10 28 -12 63 -3 55 -5 62 -25 65 -19 3 -22 10
-25 55 -2 32 -8 52 -15 53 -7 1 -17 2 -23 3 -5 0 -12 24 -16 51 -6 44 -9 50
-30 50 -21 0 -24 5 -24 34 0 24 -7 38 -25 52 -15 12 -25 29 -25 45 0 17 -8 30
-25 39 -16 8 -25 22 -25 37 0 14 -6 23 -15 23 -8 0 -15 5 -15 11 0 6 -25 35
-55 65 -30 31 -55 59 -55 64 0 5 -9 11 -19 15 -11 3 -21 16 -23 28 -2 14 -11
23 -25 25 -16 2 -23 10 -23 27 0 16 -7 25 -25 29 -15 4 -27 16 -31 31 -4 16
-13 25 -26 25 -10 0 -16 5 -13 10 3 6 1 10 -4 10 -6 0 -11 7 -11 15 0 9 -9 15
-25 15 -20 0 -25 5 -25 25 0 20 -5 25 -24 25 -17 0 -26 7 -30 24 -4 15 -14 26
-29 28 -14 2 -23 11 -25 26 -3 16 -10 22 -28 22 -19 0 -24 5 -24 25 0 20 -5
25 -25 25 -14 0 -25 4 -25 10 0 12 -57 70 -69 70 -5 0 -18 11 -29 24 -10 14
-30 28 -44 31 -14 4 -35 18 -47 31 -13 15 -32 24 -49 24 -20 0 -33 7 -42 25
-7 14 -22 25 -32 25 -21 0 -65 39 -45 42 6 0 -10 4 -38 7 -42 5 -51 10 -53 29
-3 18 -10 22 -40 22 -70 0 -112 11 -112 30 0 18 -41 30 -102 30 -16 0 -28 5
-28 10 0 6 -6 10 -14 10 -8 0 -16 5 -18 12 -2 6 -31 13 -64 16 -32 3 -61 8
-64 12 -3 5 -23 9 -45 11 -22 1 -44 5 -49 8 -18 9 -60 13 -193 17 -74 3 -133
9 -133 15 0 5 -1797 9 -4821 9 -2865 0 -4818 -4 -4815 -9z"/>
<path d="M13072 8390 c0 -14 2 -19 5 -12 2 6 2 18 0 25 -3 6 -5 1 -5 -13z"/>
<path d="M24623 8522 c-57 -1 -103 -7 -103 -11 0 -5 -16 -12 -35 -15 -19 -4
-35 -11 -35 -16 0 -6 -10 -10 -22 -10 -12 0 -32 -11 -43 -23 -11 -13 -33 -28
-50 -34 -16 -5 -34 -19 -40 -31 -5 -12 -13 -22 -18 -22 -17 0 -38 -31 -44 -65
-4 -25 -11 -35 -24 -35 -14 0 -19 -7 -19 -25 0 -18 5 -25 19 -25 11 0 22 -4
25 -9 9 -13 145 -24 160 -12 7 6 17 6 26 1 21 -13 187 -12 212 1 15 8 19 8 14
0 -5 -8 34 -11 133 -11 79 0 142 4 146 10 4 6 15 6 31 0 35 -14 114 -13 94 0
-12 8 -9 10 13 10 15 0 27 -4 27 -9 0 -13 123 -9 132 4 7 10 11 11 43 14 9 1
15 11 15 26 0 16 -6 25 -15 25 -8 0 -15 9 -15 20 0 23 -114 140 -136 140 -8 0
-14 5 -14 10 0 6 -7 10 -15 10 -8 0 -15 7 -15 15 0 11 -11 15 -35 15 -20 0
-38 6 -41 13 -2 7 -14 14 -26 14 -12 1 -24 6 -27 11 -7 11 -171 18 -318 14z"/>
<path d="M37775 8502 c-16 -8 -31 -19 -33 -24 -2 -4 -16 -8 -32 -8 -28 0 -60
-22 -60 -41 0 -5 -11 -9 -25 -9 -16 0 -25 -6 -25 -15 0 -8 -9 -15 -19 -15 -20
0 -31 -18 -31 -51 0 -14 -7 -19 -25 -19 -21 0 -25 -5 -25 -30 0 -20 -5 -30
-15 -30 -8 0 -15 -6 -15 -12 0 -9 -4 -8 -10 2 -5 8 -10 11 -10 5 1 -24 31 -47
69 -52 23 -3 41 -10 41 -15 0 -5 53 -7 128 -4 166 6 144 6 324 5 86 0 162 2
168 6 5 3 10 2 10 -4 0 -6 30 -9 75 -8 41 1 75 5 75 10 0 4 18 7 40 7 25 0 40
-5 40 -12 0 -9 3 -9 9 1 7 10 21 12 59 7 57 -7 58 -6 54 64 -4 45 -6 50 -28
50 -19 0 -24 5 -24 24 0 17 -7 26 -24 30 -14 3 -28 15 -31 26 -4 12 -18 23
-35 26 -16 4 -32 16 -39 30 -8 19 -18 24 -46 24 -19 0 -35 4 -35 10 0 5 -16
12 -35 16 -19 3 -35 10 -35 15 0 5 -90 9 -202 8 -162 -1 -209 -4 -233 -17z"/>
<path d="M16780 8455 c-14 -8 -42 -14 -62 -15 -21 0 -38 -4 -38 -9 0 -5 -22
-11 -49 -15 -37 -5 -51 -11 -56 -26 -4 -11 -15 -20 -26 -20 -11 0 -22 -7 -25
-15 -4 -8 -14 -15 -25 -15 -10 0 -22 -7 -27 -15 -4 -9 -18 -17 -30 -18 -16 -1
-22 -8 -22 -24 0 -14 -6 -23 -15 -23 -9 0 -15 -9 -15 -25 0 -16 -6 -25 -15
-25 -9 0 -15 -9 -15 -24 0 -15 -7 -27 -19 -31 -12 -3 -21 -19 -25 -40 -4 -19
-11 -35 -15 -35 -4 0 -11 -28 -15 -61 -3 -34 -11 -68 -16 -75 -12 -14 -12
-222 0 -229 4 -3 11 -26 15 -52 4 -27 10 -52 15 -58 4 -5 11 -25 15 -42 3 -18
11 -33 16 -33 6 0 8 -4 5 -8 -3 -5 4 -16 15 -25 10 -9 19 -24 19 -32 0 -8 9
-15 21 -15 11 0 17 -4 14 -10 -3 -5 -1 -10 4 -10 6 0 11 -7 11 -15 0 -8 7 -15
16 -15 8 0 12 -4 9 -10 -3 -5 1 -10 9 -10 9 0 16 -6 16 -14 0 -8 11 -17 25
-20 16 -4 25 -13 25 -26 0 -15 7 -20 25 -20 16 0 25 -6 25 -15 0 -10 10 -15
30 -15 20 0 30 -5 30 -15 0 -8 3 -14 8 -14 22 4 42 -2 37 -11 -4 -6 5 -10 21
-10 15 0 65 -7 111 -16 77 -14 94 -14 196 1 62 9 114 21 115 26 2 5 15 9 28 9
15 0 24 6 24 15 0 10 10 15 30 15 17 0 30 4 30 10 0 5 11 12 25 16 14 3 25 10
25 14 0 5 10 12 22 16 22 7 108 92 108 107 0 4 11 18 25 31 14 13 25 33 25 44
0 11 10 29 23 39 51 40 74 307 40 468 -9 44 -21 82 -25 83 -13 6 -38 59 -38
81 0 14 -9 23 -25 27 -18 4 -25 13 -25 30 0 15 -6 24 -15 24 -9 0 -15 9 -15
25 0 20 -5 25 -25 25 -14 0 -25 6 -25 13 -1 12 -65 47 -88 47 -6 0 -13 9 -17
20 -5 15 -19 21 -56 26 -27 4 -49 10 -49 15 0 5 -11 9 -24 9 -14 0 -28 5 -31
10 -4 6 -15 8 -26 5 -11 -4 -19 -2 -19 4 0 17 -209 14 -240 -4z"/>
<path d="M32295 8457 c-11 -7 -33 -14 -50 -16 -16 -1 -31 -7 -33 -12 -2 -5
-18 -9 -35 -9 -20 0 -42 -9 -57 -23 -14 -13 -39 -27 -55 -31 -16 -4 -39 -18
-52 -32 -12 -13 -31 -24 -43 -24 -15 0 -20 -6 -20 -25 0 -20 -5 -25 -24 -25
-21 0 -24 -6 -30 -50 -5 -39 -11 -50 -25 -50 -15 0 -20 -11 -25 -49 -5 -36
-12 -51 -25 -56 -25 -8 -31 -50 -31 -225 0 -175 6 -217 31 -223 13 -4 20 -18
25 -56 5 -39 11 -51 24 -51 19 0 30 -19 30 -50 0 -11 10 -20 25 -24 16 -4 25
-13 25 -26 0 -10 9 -22 21 -25 11 -4 18 -9 15 -12 -5 -6 37 -43 49 -43 3 0 16
-11 29 -25 16 -17 34 -25 57 -25 26 0 30 -3 19 -10 -12 -8 -9 -10 12 -10 15 0
31 -6 35 -14 4 -8 31 -16 58 -19 28 -3 91 -10 142 -16 73 -8 106 -7 160 4 37
8 78 15 91 15 12 0 22 4 22 10 0 5 11 12 25 16 14 3 25 10 25 15 0 5 11 9 25
9 14 0 25 4 25 9 0 5 10 13 23 17 12 4 32 17 44 30 12 13 31 24 43 24 15 0 20
6 20 25 0 20 5 25 25 25 22 0 25 4 25 37 0 20 3 33 7 30 13 -14 43 27 43 60 0
28 4 33 24 33 23 0 23 2 29 135 3 74 3 196 0 269 -6 127 -7 135 -27 138 -16 2
-22 11 -24 38 -2 20 -13 43 -28 57 -13 12 -24 31 -24 43 0 15 -6 20 -25 20
-20 0 -25 5 -25 25 0 20 -5 25 -24 25 -17 0 -26 7 -30 24 -4 16 -15 25 -37 30
-18 3 -40 15 -50 27 -10 12 -35 23 -58 26 -22 3 -39 9 -36 13 4 6 -45 18 -92
22 -7 1 -13 5 -13 10 0 14 -233 10 -255 -5z"/>
<path d="M16137 4503 c-4 -3 -7 -14 -7 -24 0 -13 -12 -19 -49 -24 l-49 -7 -7
-49 c-4 -27 -11 -49 -16 -49 -5 0 -9 -13 -9 -29 0 -16 -6 -32 -12 -34 -10 -4
-10 -6 0 -6 6 -1 12 -13 12 -27 0 -14 4 -23 9 -20 5 3 12 -15 16 -41 7 -50 19
-66 53 -77 12 -4 22 -12 22 -17 0 -5 7 -9 15 -9 8 0 15 -4 15 -10 0 -6 28 -10
65 -10 37 0 65 4 65 10 0 6 7 10 15 10 8 0 15 4 15 9 0 5 10 13 22 17 32 10
47 28 55 66 3 18 17 42 30 54 22 19 24 26 18 68 -6 35 -12 46 -25 46 -14 0
-20 11 -25 50 l-7 49 -44 7 c-36 5 -45 11 -50 30 -6 22 -11 24 -63 24 -32 0
-61 -3 -64 -7z"/>
<path d="M20277 4503 c-4 -3 -7 -14 -7 -23 0 -12 -11 -19 -35 -23 -50 -8 -61
-24 -64 -92 -1 -33 -7 -61 -12 -63 -12 -5 -12 -52 1 -52 6 0 10 -25 10 -55 0
-42 3 -55 15 -55 8 0 15 -4 15 -9 0 -5 11 -12 25 -15 14 -4 25 -11 25 -17 0
-6 5 -7 10 -4 6 3 13 -1 16 -9 4 -12 20 -16 55 -16 27 0 49 5 49 10 0 6 11 10
25 10 16 0 25 6 25 15 0 9 9 15 24 15 17 0 26 7 30 25 4 14 11 25 16 25 6 0
10 7 10 15 0 8 5 15 10 15 6 0 10 40 10 99 0 96 -1 100 -22 103 -17 2 -24 11
-26 31 -3 21 -9 27 -28 27 -14 0 -24 6 -24 14 0 8 -14 19 -31 25 -35 12 -112
15 -122 4z"/>
<path d="M23233 4545 c-7 -8 -13 -19 -13 -25 0 -5 -11 -10 -24 -10 -34 0 -56
-26 -56 -66 l0 -34 170 0 170 0 0 44 0 44 -49 7 c-41 6 -50 11 -55 31 -6 22
-11 24 -69 24 -41 -1 -66 -6 -74 -15z"/>
<path d="M28838 4540 c-9 -10 -14 -21 -10 -24 3 -3 -8 -6 -24 -6 -42 0 -52
-10 -60 -58 l-7 -42 172 0 171 0 0 46 c0 25 -4 43 -9 39 -5 -3 -12 -1 -16 5
-3 5 -22 10 -41 10 -30 0 -34 3 -34 25 0 24 -2 25 -62 24 -48 0 -67 -5 -80
-19z"/>
<path d="M31797 4503 c-4 -3 -7 -15 -7 -25 0 -12 -7 -18 -24 -18 -23 0 -31 -6
-63 -44 -9 -10 -13 -56 -13 -146 l0 -130 25 0 c15 0 25 -6 25 -14 0 -8 11 -17
25 -20 14 -4 25 -13 25 -21 0 -12 14 -15 65 -15 37 0 65 4 65 10 0 6 7 10 15
10 8 0 15 7 15 15 0 9 9 15 24 15 17 0 26 7 30 25 4 14 11 25 16 25 6 0 10 11
10 25 0 14 5 25 10 25 6 0 10 28 10 65 0 37 -4 65 -10 65 -5 0 -10 11 -10 24
0 13 -7 26 -15 30 -8 3 -15 14 -15 25 0 14 -9 23 -25 27 -14 3 -25 10 -25 15
0 26 -132 54 -153 32z"/>
<path d="M31341 4424 c0 -11 3 -14 6 -6 3 7 2 16 -1 19 -3 4 -6 -2 -5 -13z"/>
<path d="M33912 4551 c3 -31 -4 -41 -32 -41 -16 0 -30 -5 -30 -11 0 -14 -25
-39 -39 -39 -6 0 -11 -11 -11 -25 l0 -25 182 2 c165 3 183 5 186 21 2 10 -3
17 -12 17 -9 0 -16 11 -18 28 -3 23 -8 27 -40 30 -21 2 -38 8 -38 13 0 27 -31
40 -89 38 -33 -1 -60 -5 -59 -8z"/>
</g>
</svg>
